<?xml version="1.0" encoding="UTF-8" standalone="no"?>
<!DOCTYPE svg PUBLIC "-//W3C//DTD SVG 1.1//EN"
 "http://www.w3.org/Graphics/SVG/1.1/DTD/svg11.dtd">
<!-- Generated by graphviz version 2.40.1 (20161225.0304)
 -->
<!-- Title: public.comments Pages: 1 -->
<svg width="954pt" height="682pt"
 viewBox="0.00 0.00 954.00 682.00" xmlns="http://www.w3.org/2000/svg" xmlns:xlink="http://www.w3.org/1999/xlink">
<g id="graph0" class="graph" transform="scale(1 1) rotate(0) translate(4 678)">
<title>public.comments</title>
<polygon fill="#ffffff" stroke="transparent" points="-4,4 -4,-678 950,-678 950,4 -4,4"/>
<!-- public.comments -->
<g id="node1" class="node">
<title>public.comments</title>
<polygon fill="#efefef" stroke="transparent" points="347,-592.5 347,-627.5 600,-627.5 600,-592.5 347,-592.5"/>
<polygon fill="none" stroke="#000000" points="347,-592.5 347,-627.5 600,-627.5 600,-592.5 347,-592.5"/>
<text text-anchor="start" x="357.3659" y="-605.3" font-family="Arial Bold" font-size="18.00" fill="#000000">public.comments</text>
<text text-anchor="start" x="492.3803" y="-605.3" font-family="Arial" font-size="14.00" fill="#000000"> </text>
<text text-anchor="start" x="496.2709" y="-605.3" font-family="Arial" font-size="14.00" fill="#666666">[BASE TABLE]</text>
<polygon fill="none" stroke="#000000" points="347,-562.5 347,-592.5 600,-592.5 600,-562.5 347,-562.5"/>
<text text-anchor="start" x="354" y="-573.9" font-family="Arial" font-size="14.00" fill="#000000">id </text>
<text text-anchor="start" x="368.7798" y="-573.9" font-family="Arial" font-size="14.00" fill="#666666">[integer]</text>
<polygon fill="none" stroke="#000000" points="347,-532.5 347,-562.5 600,-562.5 600,-532.5 347,-532.5"/>
<text text-anchor="start" x="354" y="-543.9" font-family="Arial" font-size="14.00" fill="#000000">user_id </text>
<text text-anchor="start" x="403.7882" y="-543.9" font-family="Arial" font-size="14.00" fill="#666666">[bigint]</text>
<polygon fill="none" stroke="#000000" points="347,-502.5 347,-532.5 600,-532.5 600,-502.5 347,-502.5"/>
<text text-anchor="start" x="354" y="-513.9" font-family="Arial" font-size="14.00" fill="#000000">post_id </text>
<text text-anchor="start" x="403.0182" y="-513.9" font-family="Arial" font-size="14.00" fill="#666666">[bigint]</text>
<polygon fill="none" stroke="#000000" points="347,-472.5 347,-502.5 600,-502.5 600,-472.5 347,-472.5"/>
<text text-anchor="start" x="354" y="-483.9" font-family="Arial" font-size="14.00" fill="#000000">comment </text>
<text text-anchor="start" x="415.4502" y="-483.9" font-family="Arial" font-size="14.00" fill="#666666">[text]</text>
<polygon fill="none" stroke="#000000" points="347,-442.5 347,-472.5 600,-472.5 600,-442.5 347,-442.5"/>
<text text-anchor="start" x="354" y="-453.9" font-family="Arial" font-size="14.00" fill="#000000">created_at </text>
<text text-anchor="start" x="424.028" y="-453.9" font-family="Arial" font-size="14.00" fill="#666666">[timestamp with time zone]</text>
<polygon fill="none" stroke="#000000" points="347,-412.5 347,-442.5 600,-442.5 600,-412.5 347,-412.5"/>
<text text-anchor="start" x="353.6915" y="-423.9" font-family="Arial" font-size="14.00" fill="#000000">updated_at </text>
<text text-anchor="start" x="427.6241" y="-423.9" font-family="Arial" font-size="14.00" fill="#666666">[timestamp with time zone]</text>
<polygon fill="none" stroke="#000000" stroke-width="3" points="345,-411.5 345,-629.5 601,-629.5 601,-411.5 345,-411.5"/>
</g>
<!-- public.users -->
<g id="node2" class="node">
<title>public.users</title>
<polygon fill="#efefef" stroke="transparent" points="169,-222.5 169,-257.5 422,-257.5 422,-222.5 169,-222.5"/>
<polygon fill="none" stroke="#000000" points="169,-222.5 169,-257.5 422,-257.5 422,-222.5 169,-222.5"/>
<text text-anchor="start" x="198.8662" y="-235.3" font-family="Arial Bold" font-size="18.00" fill="#000000">public.users</text>
<text text-anchor="start" x="294.88" y="-235.3" font-family="Arial" font-size="14.00" fill="#000000"> </text>
<text text-anchor="start" x="298.7706" y="-235.3" font-family="Arial" font-size="14.00" fill="#666666">[BASE TABLE]</text>
<polygon fill="none" stroke="#000000" points="169,-192.5 169,-222.5 422,-222.5 422,-192.5 169,-192.5"/>
<text text-anchor="start" x="176" y="-203.9" font-family="Arial" font-size="14.00" fill="#000000">id </text>
<text text-anchor="start" x="190.7798" y="-203.9" font-family="Arial" font-size="14.00" fill="#666666">[integer]</text>
<polygon fill="none" stroke="#000000" points="169,-162.5 169,-192.5 422,-192.5 422,-162.5 169,-162.5"/>
<text text-anchor="start" x="176" y="-173.9" font-family="Arial" font-size="14.00" fill="#000000">name </text>
<text text-anchor="start" x="214.899" y="-173.9" font-family="Arial" font-size="14.00" fill="#666666">[text]</text>
<polygon fill="none" stroke="#000000" points="169,-132.5 169,-162.5 422,-162.5 422,-132.5 169,-132.5"/>
<text text-anchor="start" x="176" y="-143.9" font-family="Arial" font-size="14.00" fill="#000000">password_hash </text>
<text text-anchor="start" x="277.9186" y="-143.9" font-family="Arial" font-size="14.00" fill="#666666">[text]</text>
<polygon fill="none" stroke="#000000" points="169,-102.5 169,-132.5 422,-132.5 422,-102.5 169,-102.5"/>
<text text-anchor="start" x="176" y="-113.9" font-family="Arial" font-size="14.00" fill="#000000">created_at </text>
<text text-anchor="start" x="246.028" y="-113.9" font-family="Arial" font-size="14.00" fill="#666666">[timestamp with time zone]</text>
<polygon fill="none" stroke="#000000" points="169,-72.5 169,-102.5 422,-102.5 422,-72.5 169,-72.5"/>
<text text-anchor="start" x="175.6915" y="-83.9" font-family="Arial" font-size="14.00" fill="#000000">updated_at </text>
<text text-anchor="start" x="249.6241" y="-83.9" font-family="Arial" font-size="14.00" fill="#666666">[timestamp with time zone]</text>
</g>
<!-- public.comments&#45;&gt;public.users -->
<g id="edge1" class="edge">
<title>public.comments:user_id&#45;&gt;public.users:id</title>
<path fill="none" stroke="#000000" d="M336.6169,-547.4061C52.447,-542.1453 414.5007,-317.589 422,-301 439.118,-263.1339 463.5556,-207.5 422,-207.5"/>
<polygon fill="#000000" stroke="#000000" points="337.0004,-547.4094 346.9593,-551.9998 342.0002,-547.4547 347,-547.5 347,-547.5 347,-547.5 342.0002,-547.4547 347.0407,-543.0002 337.0004,-547.4094 337.0004,-547.4094"/>
<text text-anchor="start" x="7.0535" y="-557.5" font-family="Arial" font-size="10.00" fill="#000000">FOREIGN KEY (user_id) REFERENCES users(id) ON DELETE CASCADE</text>
</g>
<!-- public.posts -->
<g id="node3" class="node">
<title>public.posts</title>
<polygon fill="#efefef" stroke="transparent" points="526,-252.5 526,-287.5 779,-287.5 779,-252.5 526,-252.5"/>
<polygon fill="none" stroke="#000000" points="526,-252.5 526,-287.5 779,-287.5 779,-252.5 526,-252.5"/>
<text text-anchor="start" x="556.3612" y="-265.3" font-family="Arial Bold" font-size="18.00" fill="#000000">public.posts</text>
<text text-anchor="start" x="651.385" y="-265.3" font-family="Arial" font-size="14.00" fill="#000000"> </text>
<text text-anchor="start" x="655.2756" y="-265.3" font-family="Arial" font-size="14.00" fill="#666666">[BASE TABLE]</text>
<polygon fill="none" stroke="#000000" points="526,-222.5 526,-252.5 779,-252.5 779,-222.5 526,-222.5"/>
<text text-anchor="start" x="533" y="-233.9" font-family="Arial" font-size="14.00" fill="#000000">id </text>
<text text-anchor="start" x="547.7798" y="-233.9" font-family="Arial" font-size="14.00" fill="#666666">[integer]</text>
<polygon fill="none" stroke="#000000" points="526,-192.5 526,-222.5 779,-222.5 779,-192.5 526,-192.5"/>
<text text-anchor="start" x="533" y="-203.9" font-family="Arial" font-size="14.00" fill="#000000">user_id </text>
<text text-anchor="start" x="582.7882" y="-203.9" font-family="Arial" font-size="14.00" fill="#666666">[bigint]</text>
<polygon fill="none" stroke="#000000" points="526,-162.5 526,-192.5 779,-192.5 779,-162.5 526,-162.5"/>
<text text-anchor="start" x="533" y="-173.9" font-family="Arial" font-size="14.00" fill="#000000">title </text>
<text text-anchor="start" x="558.6676" y="-173.9" font-family="Arial" font-size="14.00" fill="#666666">[text]</text>
<polygon fill="none" stroke="#000000" points="526,-132.5 526,-162.5 779,-162.5 779,-132.5 526,-132.5"/>
<text text-anchor="start" x="533" y="-143.9" font-family="Arial" font-size="14.00" fill="#000000">url </text>
<text text-anchor="start" x="552.4404" y="-143.9" font-family="Arial" font-size="14.00" fill="#666666">[text]</text>
<polygon fill="none" stroke="#000000" points="526,-102.5 526,-132.5 779,-132.5 779,-102.5 526,-102.5"/>
<text text-anchor="start" x="533" y="-113.9" font-family="Arial" font-size="14.00" fill="#000000">message </text>
<text text-anchor="start" x="593.6816" y="-113.9" font-family="Arial" font-size="14.00" fill="#666666">[text]</text>
<polygon fill="none" stroke="#000000" points="526,-72.5 526,-102.5 779,-102.5 779,-72.5 526,-72.5"/>
<text text-anchor="start" x="533" y="-83.9" font-family="Arial" font-size="14.00" fill="#000000">created_at </text>
<text text-anchor="start" x="603.028" y="-83.9" font-family="Arial" font-size="14.00" fill="#666666">[timestamp with time zone]</text>
<polygon fill="none" stroke="#000000" points="526,-42.5 526,-72.5 779,-72.5 779,-42.5 526,-42.5"/>
<text text-anchor="start" x="532.6915" y="-53.9" font-family="Arial" font-size="14.00" fill="#000000">updated_at </text>
<text text-anchor="start" x="606.6241" y="-53.9" font-family="Arial" font-size="14.00" fill="#666666">[timestamp with time zone]</text>
</g>
<!-- public.comments&#45;&gt;public.posts -->
<g id="edge2" class="edge">
<title>public.comments:post_id&#45;&gt;public.posts:id</title>
<path fill="none" stroke="#000000" d="M610.1074,-516.6799C663.4408,-507.3523 633.5343,-420.606 600,-367 580.603,-335.993 545.397,-362.007 526,-331 503.9612,-295.77 484.4444,-237.5 526,-237.5"/>
<polygon fill="#000000" stroke="#000000" points="609.9672,-516.6912 599.636,-513.0147 604.9836,-517.0956 600,-517.5 600,-517.5 600,-517.5 604.9836,-517.0956 600.364,-521.9853 609.9672,-516.6912 609.9672,-516.6912"/>
<text text-anchor="start" x="606.6035" y="-527.5" font-family="Arial" font-size="10.00" fill="#000000">FOREIGN KEY (post_id) REFERENCES posts(id) ON DELETE CASCADE</text>
</g>
</g>
</svg>
