<?xml version="1.0" encoding="UTF-8" standalone="no"?>
<!DOCTYPE svg PUBLIC "-//W3C//DTD SVG 1.1//EN"
 "http://www.w3.org/Graphics/SVG/1.1/DTD/svg11.dtd">
<!-- Generated by graphviz version 2.40.1 (20161225.0304)
 -->
<!-- Title: public.tags Pages: 1 -->
<svg width="516pt" height="472pt"
 viewBox="0.00 0.00 515.50 472.00" xmlns="http://www.w3.org/2000/svg" xmlns:xlink="http://www.w3.org/1999/xlink">
<g id="graph0" class="graph" transform="scale(1 1) rotate(0) translate(4 468)">
<title>public.tags</title>
<polygon fill="#ffffff" stroke="transparent" points="-4,4 -4,-468 511.5,-468 511.5,4 -4,4"/>
<!-- public.tags -->
<g id="node1" class="node">
<title>public.tags</title>
<polygon fill="#efefef" stroke="transparent" points="209,-165.5 209,-200.5 462,-200.5 462,-165.5 209,-165.5"/>
<polygon fill="none" stroke="#000000" points="209,-165.5 209,-200.5 462,-200.5 462,-165.5 209,-165.5"/>
<text text-anchor="start" x="243.8612" y="-178.3" font-family="Arial Bold" font-size="18.00" fill="#000000">public.tags</text>
<text text-anchor="start" x="329.885" y="-178.3" font-family="Arial" font-size="14.00" fill="#000000"> </text>
<text text-anchor="start" x="333.7756" y="-178.3" font-family="Arial" font-size="14.00" fill="#666666">[BASE TABLE]</text>
<polygon fill="none" stroke="#000000" points="209,-135.5 209,-165.5 462,-165.5 462,-135.5 209,-135.5"/>
<text text-anchor="start" x="216" y="-146.9" font-family="Arial" font-size="14.00" fill="#000000">id </text>
<text text-anchor="start" x="230.7798" y="-146.9" font-family="Arial" font-size="14.00" fill="#666666">[integer]</text>
<polygon fill="none" stroke="#000000" points="209,-105.5 209,-135.5 462,-135.5 462,-105.5 209,-105.5"/>
<text text-anchor="start" x="216" y="-116.9" font-family="Arial" font-size="14.00" fill="#000000">name </text>
<text text-anchor="start" x="254.899" y="-116.9" font-family="Arial" font-size="14.00" fill="#666666">[text]</text>
<polygon fill="none" stroke="#000000" points="209,-75.5 209,-105.5 462,-105.5 462,-75.5 209,-75.5"/>
<text text-anchor="start" x="216" y="-86.9" font-family="Arial" font-size="14.00" fill="#000000">created_at </text>
<text text-anchor="start" x="286.028" y="-86.9" font-family="Arial" font-size="14.00" fill="#666666">[timestamp with time zone]</text>
<polygon fill="none" stroke="#000000" points="209,-45.5 209,-75.5 462,-75.5 462,-45.5 209,-45.5"/>
<text text-anchor="start" x="215.6915" y="-56.9" font-family="Arial" font-size="14.00" fill="#000000">updated_at </text>
<text text-anchor="start" x="289.6241" y="-56.9" font-family="Arial" font-size="14.00" fill="#666666">[timestamp with time zone]</text>
<polygon fill="none" stroke="#000000" stroke-width="3" points="207,-44.5 207,-202.5 463,-202.5 463,-44.5 207,-44.5"/>
</g>
<!-- public.post_tag -->
<g id="node2" class="node">
<title>public.post_tag</title>
<polygon fill="#efefef" stroke="transparent" points="220,-385.5 220,-420.5 452,-420.5 452,-385.5 220,-385.5"/>
<polygon fill="none" stroke="#000000" points="220,-385.5 220,-420.5 452,-420.5 452,-385.5 220,-385.5"/>
<text text-anchor="start" x="226.8508" y="-398.3" font-family="Arial Bold" font-size="18.00" fill="#000000">public.post_tag</text>
<text text-anchor="start" x="347.8954" y="-398.3" font-family="Arial" font-size="14.00" fill="#000000"> </text>
<text text-anchor="start" x="351.786" y="-398.3" font-family="Arial" font-size="14.00" fill="#666666">[BASE TABLE]</text>
<polygon fill="none" stroke="#000000" points="220,-355.5 220,-385.5 452,-385.5 452,-355.5 220,-355.5"/>
<text text-anchor="start" x="227" y="-366.9" font-family="Arial" font-size="14.00" fill="#000000">post_id </text>
<text text-anchor="start" x="276.0182" y="-366.9" font-family="Arial" font-size="14.00" fill="#666666">[bigint]</text>
<polygon fill="none" stroke="#000000" points="220,-325.5 220,-355.5 452,-355.5 452,-325.5 220,-325.5"/>
<text text-anchor="start" x="227" y="-336.9" font-family="Arial" font-size="14.00" fill="#000000">tag_id </text>
<text text-anchor="start" x="269.0182" y="-336.9" font-family="Arial" font-size="14.00" fill="#666666">[bigint]</text>
</g>
<!-- public.post_tag&#45;&gt;public.tags -->
<g id="edge1" class="edge">
<title>public.post_tag:tag_id&#45;&gt;public.tags:id</title>
<path fill="none" stroke="#000000" d="M336.8761,-315.3195C346.4468,-264.3073 431.7882,-301.4179 462,-247 482.818,-209.5024 504.8889,-150.5 462,-150.5"/>
<polygon fill="#000000" stroke="#000000" points="336.8575,-315.5368 331.5166,-325.1141 336.4288,-320.5184 336,-325.5 336,-325.5 336,-325.5 336.4288,-320.5184 340.4834,-325.8859 336.8575,-315.5368 336.8575,-315.5368"/>
<text text-anchor="start" x="6.6035" y="-335.5" font-family="Arial" font-size="10.00" fill="#000000">FOREIGN KEY (tag_id) REFERENCES tags(id) ON DELETE CASCADE</text>
</g>
</g>
</svg>
