<?xml version="1.0" encoding="UTF-8" standalone="no"?>
<!DOCTYPE svg PUBLIC "-//W3C//DTD SVG 1.1//EN"
 "http://www.w3.org/Graphics/SVG/1.1/DTD/svg11.dtd">
<!-- Generated by graphviz version 2.40.1 (20161225.0304)
 -->
<!-- Title: public.users Pages: 1 -->
<svg width="806pt" height="652pt"
 viewBox="0.00 0.00 806.00 652.00" xmlns="http://www.w3.org/2000/svg" xmlns:xlink="http://www.w3.org/1999/xlink">
<g id="graph0" class="graph" transform="scale(1 1) rotate(0) translate(4 648)">
<title>public.users</title>
<polygon fill="#ffffff" stroke="transparent" points="-4,4 -4,-648 802,-648 802,4 -4,4"/>
<!-- public.users -->
<g id="node1" class="node">
<title>public.users</title>
<polygon fill="#efefef" stroke="transparent" points="272,-195.5 272,-230.5 525,-230.5 525,-195.5 272,-195.5"/>
<polygon fill="none" stroke="#000000" points="272,-195.5 272,-230.5 525,-230.5 525,-195.5 272,-195.5"/>
<text text-anchor="start" x="301.8662" y="-208.3" font-family="Arial Bold" font-size="18.00" fill="#000000">public.users</text>
<text text-anchor="start" x="397.88" y="-208.3" font-family="Arial" font-size="14.00" fill="#000000"> </text>
<text text-anchor="start" x="401.7706" y="-208.3" font-family="Arial" font-size="14.00" fill="#666666">[BASE TABLE]</text>
<polygon fill="none" stroke="#000000" points="272,-165.5 272,-195.5 525,-195.5 525,-165.5 272,-165.5"/>
<text text-anchor="start" x="279" y="-176.9" font-family="Arial" font-size="14.00" fill="#000000">id </text>
<text text-anchor="start" x="293.7798" y="-176.9" font-family="Arial" font-size="14.00" fill="#666666">[integer]</text>
<polygon fill="none" stroke="#000000" points="272,-135.5 272,-165.5 525,-165.5 525,-135.5 272,-135.5"/>
<text text-anchor="start" x="279" y="-146.9" font-family="Arial" font-size="14.00" fill="#000000">name </text>
<text text-anchor="start" x="317.899" y="-146.9" font-family="Arial" font-size="14.00" fill="#666666">[text]</text>
<polygon fill="none" stroke="#000000" points="272,-105.5 272,-135.5 525,-135.5 525,-105.5 272,-105.5"/>
<text text-anchor="start" x="279" y="-116.9" font-family="Arial" font-size="14.00" fill="#000000">password_hash </text>
<text text-anchor="start" x="380.9186" y="-116.9" font-family="Arial" font-size="14.00" fill="#666666">[text]</text>
<polygon fill="none" stroke="#000000" points="272,-75.5 272,-105.5 525,-105.5 525,-75.5 272,-75.5"/>
<text text-anchor="start" x="279" y="-86.9" font-family="Arial" font-size="14.00" fill="#000000">created_at </text>
<text text-anchor="start" x="349.028" y="-86.9" font-family="Arial" font-size="14.00" fill="#666666">[timestamp with time zone]</text>
<polygon fill="none" stroke="#000000" points="272,-45.5 272,-75.5 525,-75.5 525,-45.5 272,-45.5"/>
<text text-anchor="start" x="278.6915" y="-56.9" font-family="Arial" font-size="14.00" fill="#000000">updated_at </text>
<text text-anchor="start" x="352.6241" y="-56.9" font-family="Arial" font-size="14.00" fill="#666666">[timestamp with time zone]</text>
<polygon fill="none" stroke="#000000" stroke-width="3" points="270,-44.5 270,-232.5 526,-232.5 526,-44.5 270,-44.5"/>
</g>
<!-- public.posts -->
<g id="node2" class="node">
<title>public.posts</title>
<polygon fill="#efefef" stroke="transparent" points="94,-565.5 94,-600.5 347,-600.5 347,-565.5 94,-565.5"/>
<polygon fill="none" stroke="#000000" points="94,-565.5 94,-600.5 347,-600.5 347,-565.5 94,-565.5"/>
<text text-anchor="start" x="124.3612" y="-578.3" font-family="Arial Bold" font-size="18.00" fill="#000000">public.posts</text>
<text text-anchor="start" x="219.385" y="-578.3" font-family="Arial" font-size="14.00" fill="#000000"> </text>
<text text-anchor="start" x="223.2756" y="-578.3" font-family="Arial" font-size="14.00" fill="#666666">[BASE TABLE]</text>
<polygon fill="none" stroke="#000000" points="94,-535.5 94,-565.5 347,-565.5 347,-535.5 94,-535.5"/>
<text text-anchor="start" x="101" y="-546.9" font-family="Arial" font-size="14.00" fill="#000000">id </text>
<text text-anchor="start" x="115.7798" y="-546.9" font-family="Arial" font-size="14.00" fill="#666666">[integer]</text>
<polygon fill="none" stroke="#000000" points="94,-505.5 94,-535.5 347,-535.5 347,-505.5 94,-505.5"/>
<text text-anchor="start" x="101" y="-516.9" font-family="Arial" font-size="14.00" fill="#000000">user_id </text>
<text text-anchor="start" x="150.7882" y="-516.9" font-family="Arial" font-size="14.00" fill="#666666">[bigint]</text>
<polygon fill="none" stroke="#000000" points="94,-475.5 94,-505.5 347,-505.5 347,-475.5 94,-475.5"/>
<text text-anchor="start" x="101" y="-486.9" font-family="Arial" font-size="14.00" fill="#000000">title </text>
<text text-anchor="start" x="126.6676" y="-486.9" font-family="Arial" font-size="14.00" fill="#666666">[text]</text>
<polygon fill="none" stroke="#000000" points="94,-445.5 94,-475.5 347,-475.5 347,-445.5 94,-445.5"/>
<text text-anchor="start" x="101" y="-456.9" font-family="Arial" font-size="14.00" fill="#000000">url </text>
<text text-anchor="start" x="120.4404" y="-456.9" font-family="Arial" font-size="14.00" fill="#666666">[text]</text>
<polygon fill="none" stroke="#000000" points="94,-415.5 94,-445.5 347,-445.5 347,-415.5 94,-415.5"/>
<text text-anchor="start" x="101" y="-426.9" font-family="Arial" font-size="14.00" fill="#000000">message </text>
<text text-anchor="start" x="161.6816" y="-426.9" font-family="Arial" font-size="14.00" fill="#666666">[text]</text>
<polygon fill="none" stroke="#000000" points="94,-385.5 94,-415.5 347,-415.5 347,-385.5 94,-385.5"/>
<text text-anchor="start" x="101" y="-396.9" font-family="Arial" font-size="14.00" fill="#000000">created_at </text>
<text text-anchor="start" x="171.028" y="-396.9" font-family="Arial" font-size="14.00" fill="#666666">[timestamp with time zone]</text>
<polygon fill="none" stroke="#000000" points="94,-355.5 94,-385.5 347,-385.5 347,-355.5 94,-355.5"/>
<text text-anchor="start" x="100.6915" y="-366.9" font-family="Arial" font-size="14.00" fill="#000000">updated_at </text>
<text text-anchor="start" x="174.6241" y="-366.9" font-family="Arial" font-size="14.00" fill="#666666">[timestamp with time zone]</text>
</g>
<!-- public.posts&#45;&gt;public.users -->
<g id="edge1" class="edge">
<title>public.posts:user_id&#45;&gt;public.users:id</title>
<path fill="none" stroke="#000000" d="M356.5991,-517.5572C389.725,-494.9663 369.639,-348.9787 347,-313 327.3084,-281.7054 291.6916,-308.2946 272,-277 249.1585,-240.6995 229.1111,-180.5 272,-180.5"/>
<polygon fill="#000000" stroke="#000000" points="356.5608,-517.5689 345.681,-516.1976 351.7804,-519.0345 347,-520.5 347,-520.5 347,-520.5 351.7804,-519.0345 348.319,-524.8024 356.5608,-517.5689 356.5608,-517.5689"/>
<text text-anchor="start" x="7.0535" y="-530.5" font-family="Arial" font-size="10.00" fill="#000000">FOREIGN KEY (user_id) REFERENCES users(id) ON DELETE CASCADE</text>
</g>
<!-- public.comments -->
<g id="node3" class="node">
<title>public.comments</title>
<polygon fill="#efefef" stroke="transparent" points="451,-550.5 451,-585.5 704,-585.5 704,-550.5 451,-550.5"/>
<polygon fill="none" stroke="#000000" points="451,-550.5 451,-585.5 704,-585.5 704,-550.5 451,-550.5"/>
<text text-anchor="start" x="461.3659" y="-563.3" font-family="Arial Bold" font-size="18.00" fill="#000000">public.comments</text>
<text text-anchor="start" x="596.3803" y="-563.3" font-family="Arial" font-size="14.00" fill="#000000"> </text>
<text text-anchor="start" x="600.2709" y="-563.3" font-family="Arial" font-size="14.00" fill="#666666">[BASE TABLE]</text>
<polygon fill="none" stroke="#000000" points="451,-520.5 451,-550.5 704,-550.5 704,-520.5 451,-520.5"/>
<text text-anchor="start" x="458" y="-531.9" font-family="Arial" font-size="14.00" fill="#000000">id </text>
<text text-anchor="start" x="472.7798" y="-531.9" font-family="Arial" font-size="14.00" fill="#666666">[integer]</text>
<polygon fill="none" stroke="#000000" points="451,-490.5 451,-520.5 704,-520.5 704,-490.5 451,-490.5"/>
<text text-anchor="start" x="458" y="-501.9" font-family="Arial" font-size="14.00" fill="#000000">user_id </text>
<text text-anchor="start" x="507.7882" y="-501.9" font-family="Arial" font-size="14.00" fill="#666666">[bigint]</text>
<polygon fill="none" stroke="#000000" points="451,-460.5 451,-490.5 704,-490.5 704,-460.5 451,-460.5"/>
<text text-anchor="start" x="458" y="-471.9" font-family="Arial" font-size="14.00" fill="#000000">post_id </text>
<text text-anchor="start" x="507.0182" y="-471.9" font-family="Arial" font-size="14.00" fill="#666666">[bigint]</text>
<polygon fill="none" stroke="#000000" points="451,-430.5 451,-460.5 704,-460.5 704,-430.5 451,-430.5"/>
<text text-anchor="start" x="458" y="-441.9" font-family="Arial" font-size="14.00" fill="#000000">comment </text>
<text text-anchor="start" x="519.4502" y="-441.9" font-family="Arial" font-size="14.00" fill="#666666">[text]</text>
<polygon fill="none" stroke="#000000" points="451,-400.5 451,-430.5 704,-430.5 704,-400.5 451,-400.5"/>
<text text-anchor="start" x="458" y="-411.9" font-family="Arial" font-size="14.00" fill="#000000">created_at </text>
<text text-anchor="start" x="528.028" y="-411.9" font-family="Arial" font-size="14.00" fill="#666666">[timestamp with time zone]</text>
<polygon fill="none" stroke="#000000" points="451,-370.5 451,-400.5 704,-400.5 704,-370.5 451,-370.5"/>
<text text-anchor="start" x="457.6915" y="-381.9" font-family="Arial" font-size="14.00" fill="#000000">updated_at </text>
<text text-anchor="start" x="531.6241" y="-381.9" font-family="Arial" font-size="14.00" fill="#666666">[timestamp with time zone]</text>
</g>
<!-- public.comments&#45;&gt;public.users -->
<g id="edge2" class="edge">
<title>public.comments:user_id&#45;&gt;public.users:id</title>
<path fill="none" stroke="#000000" d="M440.6914,-504.8053C376.0555,-495.4899 416.0331,-394.5657 451,-328 469.5752,-292.6388 506.4248,-312.3612 525,-277 544.9451,-239.0309 567.8889,-180.5 525,-180.5"/>
<polygon fill="#000000" stroke="#000000" points="441.0226,-504.8275 450.6974,-509.9898 446.0113,-505.1638 451,-505.5 451,-505.5 451,-505.5 446.0113,-505.1638 451.3026,-501.0102 441.0226,-504.8275 441.0226,-504.8275"/>
<text text-anchor="start" x="458.0535" y="-515.5" font-family="Arial" font-size="10.00" fill="#000000">FOREIGN KEY (user_id) REFERENCES users(id) ON DELETE CASCADE</text>
</g>
</g>
</svg>
