<?xml version="1.0" encoding="UTF-8" standalone="no"?>
<!DOCTYPE svg PUBLIC "-//W3C//DTD SVG 1.1//EN"
 "http://www.w3.org/Graphics/SVG/1.1/DTD/svg11.dtd">
<!-- Generated by graphviz version 2.40.1 (20161225.0304)
 -->
<!-- Title: public.post_tag Pages: 1 -->
<svg width="922pt" height="562pt"
 viewBox="0.00 0.00 922.00 562.00" xmlns="http://www.w3.org/2000/svg" xmlns:xlink="http://www.w3.org/1999/xlink">
<g id="graph0" class="graph" transform="scale(1 1) rotate(0) translate(4 558)">
<title>public.post_tag</title>
<polygon fill="#ffffff" stroke="transparent" points="-4,4 -4,-558 918,-558 918,4 -4,4"/>
<!-- public.post_tag -->
<g id="node1" class="node">
<title>public.post_tag</title>
<polygon fill="#efefef" stroke="transparent" points="346,-472.5 346,-507.5 578,-507.5 578,-472.5 346,-472.5"/>
<polygon fill="none" stroke="#000000" points="346,-472.5 346,-507.5 578,-507.5 578,-472.5 346,-472.5"/>
<text text-anchor="start" x="352.8508" y="-485.3" font-family="Arial Bold" font-size="18.00" fill="#000000">public.post_tag</text>
<text text-anchor="start" x="473.8954" y="-485.3" font-family="Arial" font-size="14.00" fill="#000000"> </text>
<text text-anchor="start" x="477.786" y="-485.3" font-family="Arial" font-size="14.00" fill="#666666">[BASE TABLE]</text>
<polygon fill="none" stroke="#000000" points="346,-442.5 346,-472.5 578,-472.5 578,-442.5 346,-442.5"/>
<text text-anchor="start" x="353" y="-453.9" font-family="Arial" font-size="14.00" fill="#000000">post_id </text>
<text text-anchor="start" x="402.0182" y="-453.9" font-family="Arial" font-size="14.00" fill="#666666">[bigint]</text>
<polygon fill="none" stroke="#000000" points="346,-412.5 346,-442.5 578,-442.5 578,-412.5 346,-412.5"/>
<text text-anchor="start" x="353" y="-423.9" font-family="Arial" font-size="14.00" fill="#000000">tag_id </text>
<text text-anchor="start" x="395.0182" y="-423.9" font-family="Arial" font-size="14.00" fill="#666666">[bigint]</text>
<polygon fill="none" stroke="#000000" stroke-width="3" points="344.5,-411.5 344.5,-509.5 579.5,-509.5 579.5,-411.5 344.5,-411.5"/>
</g>
<!-- public.posts -->
<g id="node2" class="node">
<title>public.posts</title>
<polygon fill="#efefef" stroke="transparent" points="157,-252.5 157,-287.5 410,-287.5 410,-252.5 157,-252.5"/>
<polygon fill="none" stroke="#000000" points="157,-252.5 157,-287.5 410,-287.5 410,-252.5 157,-252.5"/>
<text text-anchor="start" x="187.3612" y="-265.3" font-family="Arial Bold" font-size="18.00" fill="#000000">public.posts</text>
<text text-anchor="start" x="282.385" y="-265.3" font-family="Arial" font-size="14.00" fill="#000000"> </text>
<text text-anchor="start" x="286.2756" y="-265.3" font-family="Arial" font-size="14.00" fill="#666666">[BASE TABLE]</text>
<polygon fill="none" stroke="#000000" points="157,-222.5 157,-252.5 410,-252.5 410,-222.5 157,-222.5"/>
<text text-anchor="start" x="164" y="-233.9" font-family="Arial" font-size="14.00" fill="#000000">id </text>
<text text-anchor="start" x="178.7798" y="-233.9" font-family="Arial" font-size="14.00" fill="#666666">[integer]</text>
<polygon fill="none" stroke="#000000" points="157,-192.5 157,-222.5 410,-222.5 410,-192.5 157,-192.5"/>
<text text-anchor="start" x="164" y="-203.9" font-family="Arial" font-size="14.00" fill="#000000">user_id </text>
<text text-anchor="start" x="213.7882" y="-203.9" font-family="Arial" font-size="14.00" fill="#666666">[bigint]</text>
<polygon fill="none" stroke="#000000" points="157,-162.5 157,-192.5 410,-192.5 410,-162.5 157,-162.5"/>
<text text-anchor="start" x="164" y="-173.9" font-family="Arial" font-size="14.00" fill="#000000">title </text>
<text text-anchor="start" x="189.6676" y="-173.9" font-family="Arial" font-size="14.00" fill="#666666">[text]</text>
<polygon fill="none" stroke="#000000" points="157,-132.5 157,-162.5 410,-162.5 410,-132.5 157,-132.5"/>
<text text-anchor="start" x="164" y="-143.9" font-family="Arial" font-size="14.00" fill="#000000">url </text>
<text text-anchor="start" x="183.4404" y="-143.9" font-family="Arial" font-size="14.00" fill="#666666">[text]</text>
<polygon fill="none" stroke="#000000" points="157,-102.5 157,-132.5 410,-132.5 410,-102.5 157,-102.5"/>
<text text-anchor="start" x="164" y="-113.9" font-family="Arial" font-size="14.00" fill="#000000">message </text>
<text text-anchor="start" x="224.6816" y="-113.9" font-family="Arial" font-size="14.00" fill="#666666">[text]</text>
<polygon fill="none" stroke="#000000" points="157,-72.5 157,-102.5 410,-102.5 410,-72.5 157,-72.5"/>
<text text-anchor="start" x="164" y="-83.9" font-family="Arial" font-size="14.00" fill="#000000">created_at </text>
<text text-anchor="start" x="234.028" y="-83.9" font-family="Arial" font-size="14.00" fill="#666666">[timestamp with time zone]</text>
<polygon fill="none" stroke="#000000" points="157,-42.5 157,-72.5 410,-72.5 410,-42.5 157,-42.5"/>
<text text-anchor="start" x="163.6915" y="-53.9" font-family="Arial" font-size="14.00" fill="#000000">updated_at </text>
<text text-anchor="start" x="237.6241" y="-53.9" font-family="Arial" font-size="14.00" fill="#666666">[timestamp with time zone]</text>
</g>
<!-- public.post_tag&#45;&gt;public.posts -->
<g id="edge1" class="edge">
<title>public.post_tag:post_id&#45;&gt;public.posts:id</title>
<path fill="none" stroke="#000000" d="M335.8811,-455.9757C309.6714,-446.8063 327.677,-398.3296 346,-367 362.476,-338.8286 393.524,-359.1714 410,-331 430.9792,-295.1289 451.5556,-237.5 410,-237.5"/>
<polygon fill="#000000" stroke="#000000" points="336.1116,-456.0103 345.3296,-461.9498 341.0558,-456.7552 346,-457.5 346,-457.5 346,-457.5 341.0558,-456.7552 346.6704,-453.0502 336.1116,-456.0103 336.1116,-456.0103"/>
<text text-anchor="start" x="6.6035" y="-467.5" font-family="Arial" font-size="10.00" fill="#000000">FOREIGN KEY (post_id) REFERENCES posts(id) ON DELETE CASCADE</text>
</g>
<!-- public.tags -->
<g id="node3" class="node">
<title>public.tags</title>
<polygon fill="#efefef" stroke="transparent" points="514,-207.5 514,-242.5 767,-242.5 767,-207.5 514,-207.5"/>
<polygon fill="none" stroke="#000000" points="514,-207.5 514,-242.5 767,-242.5 767,-207.5 514,-207.5"/>
<text text-anchor="start" x="548.8612" y="-220.3" font-family="Arial Bold" font-size="18.00" fill="#000000">public.tags</text>
<text text-anchor="start" x="634.885" y="-220.3" font-family="Arial" font-size="14.00" fill="#000000"> </text>
<text text-anchor="start" x="638.7756" y="-220.3" font-family="Arial" font-size="14.00" fill="#666666">[BASE TABLE]</text>
<polygon fill="none" stroke="#000000" points="514,-177.5 514,-207.5 767,-207.5 767,-177.5 514,-177.5"/>
<text text-anchor="start" x="521" y="-188.9" font-family="Arial" font-size="14.00" fill="#000000">id </text>
<text text-anchor="start" x="535.7798" y="-188.9" font-family="Arial" font-size="14.00" fill="#666666">[integer]</text>
<polygon fill="none" stroke="#000000" points="514,-147.5 514,-177.5 767,-177.5 767,-147.5 514,-147.5"/>
<text text-anchor="start" x="521" y="-158.9" font-family="Arial" font-size="14.00" fill="#000000">name </text>
<text text-anchor="start" x="559.899" y="-158.9" font-family="Arial" font-size="14.00" fill="#666666">[text]</text>
<polygon fill="none" stroke="#000000" points="514,-117.5 514,-147.5 767,-147.5 767,-117.5 514,-117.5"/>
<text text-anchor="start" x="521" y="-128.9" font-family="Arial" font-size="14.00" fill="#000000">created_at </text>
<text text-anchor="start" x="591.028" y="-128.9" font-family="Arial" font-size="14.00" fill="#666666">[timestamp with time zone]</text>
<polygon fill="none" stroke="#000000" points="514,-87.5 514,-117.5 767,-117.5 767,-87.5 514,-87.5"/>
<text text-anchor="start" x="520.6915" y="-98.9" font-family="Arial" font-size="14.00" fill="#000000">updated_at </text>
<text text-anchor="start" x="594.6241" y="-98.9" font-family="Arial" font-size="14.00" fill="#666666">[timestamp with time zone]</text>
</g>
<!-- public.post_tag&#45;&gt;public.tags -->
<g id="edge2" class="edge">
<title>public.post_tag:tag_id&#45;&gt;public.tags:id</title>
<path fill="none" stroke="#000000" d="M587.8437,-424.8635C599.21,-416.2439 585.376,-388.2328 578,-367 562.9441,-323.6594 529.0559,-329.3406 514,-286 500.3635,-246.7456 472.4444,-192.5 514,-192.5"/>
<polygon fill="#000000" stroke="#000000" points="587.6595,-424.9128 576.8357,-423.1532 582.8298,-426.2064 578,-427.5 578,-427.5 578,-427.5 582.8298,-426.2064 579.1643,-431.8468 587.6595,-424.9128 587.6595,-424.9128"/>
<text text-anchor="start" x="584.6035" y="-437.5" font-family="Arial" font-size="10.00" fill="#000000">FOREIGN KEY (tag_id) REFERENCES tags(id) ON DELETE CASCADE</text>
</g>
</g>
</svg>
