<?xml version="1.0" encoding="UTF-8" standalone="no"?>
<!DOCTYPE svg PUBLIC "-//W3C//DTD SVG 1.1//EN"
 "http://www.w3.org/Graphics/SVG/1.1/DTD/svg11.dtd">
<!-- Generated by graphviz version 2.40.1 (20161225.0304)
 -->
<!-- Title: public.posts Pages: 1 -->
<svg width="885pt" height="989pt"
 viewBox="0.00 0.00 885.00 989.00" xmlns="http://www.w3.org/2000/svg" xmlns:xlink="http://www.w3.org/1999/xlink">
<g id="graph0" class="graph" transform="scale(1 1) rotate(0) translate(4 985)">
<title>public.posts</title>
<polygon fill="#ffffff" stroke="transparent" points="-4,4 -4,-985 881,-985 881,4 -4,4"/>
<!-- public.posts -->
<g id="node1" class="node">
<title>public.posts</title>
<polygon fill="#efefef" stroke="transparent" points="347,-562.5 347,-597.5 600,-597.5 600,-562.5 347,-562.5"/>
<polygon fill="none" stroke="#000000" points="347,-562.5 347,-597.5 600,-597.5 600,-562.5 347,-562.5"/>
<text text-anchor="start" x="377.3612" y="-575.3" font-family="Arial Bold" font-size="18.00" fill="#000000">public.posts</text>
<text text-anchor="start" x="472.385" y="-575.3" font-family="Arial" font-size="14.00" fill="#000000"> </text>
<text text-anchor="start" x="476.2756" y="-575.3" font-family="Arial" font-size="14.00" fill="#666666">[BASE TABLE]</text>
<polygon fill="none" stroke="#000000" points="347,-532.5 347,-562.5 600,-562.5 600,-532.5 347,-532.5"/>
<text text-anchor="start" x="354" y="-543.9" font-family="Arial" font-size="14.00" fill="#000000">id </text>
<text text-anchor="start" x="368.7798" y="-543.9" font-family="Arial" font-size="14.00" fill="#666666">[integer]</text>
<polygon fill="none" stroke="#000000" points="347,-502.5 347,-532.5 600,-532.5 600,-502.5 347,-502.5"/>
<text text-anchor="start" x="354" y="-513.9" font-family="Arial" font-size="14.00" fill="#000000">user_id </text>
<text text-anchor="start" x="403.7882" y="-513.9" font-family="Arial" font-size="14.00" fill="#666666">[bigint]</text>
<polygon fill="none" stroke="#000000" points="347,-472.5 347,-502.5 600,-502.5 600,-472.5 347,-472.5"/>
<text text-anchor="start" x="354" y="-483.9" font-family="Arial" font-size="14.00" fill="#000000">title </text>
<text text-anchor="start" x="379.6676" y="-483.9" font-family="Arial" font-size="14.00" fill="#666666">[text]</text>
<polygon fill="none" stroke="#000000" points="347,-442.5 347,-472.5 600,-472.5 600,-442.5 347,-442.5"/>
<text text-anchor="start" x="354" y="-453.9" font-family="Arial" font-size="14.00" fill="#000000">url </text>
<text text-anchor="start" x="373.4404" y="-453.9" font-family="Arial" font-size="14.00" fill="#666666">[text]</text>
<polygon fill="none" stroke="#000000" points="347,-412.5 347,-442.5 600,-442.5 600,-412.5 347,-412.5"/>
<text text-anchor="start" x="354" y="-423.9" font-family="Arial" font-size="14.00" fill="#000000">message </text>
<text text-anchor="start" x="414.6816" y="-423.9" font-family="Arial" font-size="14.00" fill="#666666">[text]</text>
<polygon fill="none" stroke="#000000" points="347,-382.5 347,-412.5 600,-412.5 600,-382.5 347,-382.5"/>
<text text-anchor="start" x="354" y="-393.9" font-family="Arial" font-size="14.00" fill="#000000">created_at </text>
<text text-anchor="start" x="424.028" y="-393.9" font-family="Arial" font-size="14.00" fill="#666666">[timestamp with time zone]</text>
<polygon fill="none" stroke="#000000" points="347,-352.5 347,-382.5 600,-382.5 600,-352.5 347,-352.5"/>
<text text-anchor="start" x="353.6915" y="-363.9" font-family="Arial" font-size="14.00" fill="#000000">updated_at </text>
<text text-anchor="start" x="427.6241" y="-363.9" font-family="Arial" font-size="14.00" fill="#666666">[timestamp with time zone]</text>
<polygon fill="none" stroke="#000000" stroke-width="3" points="345,-351.5 345,-599.5 601,-599.5 601,-351.5 345,-351.5"/>
</g>
<!-- public.users -->
<g id="node4" class="node">
<title>public.users</title>
<polygon fill="#efefef" stroke="transparent" points="347,-192.5 347,-227.5 600,-227.5 600,-192.5 347,-192.5"/>
<polygon fill="none" stroke="#000000" points="347,-192.5 347,-227.5 600,-227.5 600,-192.5 347,-192.5"/>
<text text-anchor="start" x="376.8662" y="-205.3" font-family="Arial Bold" font-size="18.00" fill="#000000">public.users</text>
<text text-anchor="start" x="472.88" y="-205.3" font-family="Arial" font-size="14.00" fill="#000000"> </text>
<text text-anchor="start" x="476.7706" y="-205.3" font-family="Arial" font-size="14.00" fill="#666666">[BASE TABLE]</text>
<polygon fill="none" stroke="#000000" points="347,-162.5 347,-192.5 600,-192.5 600,-162.5 347,-162.5"/>
<text text-anchor="start" x="354" y="-173.9" font-family="Arial" font-size="14.00" fill="#000000">id </text>
<text text-anchor="start" x="368.7798" y="-173.9" font-family="Arial" font-size="14.00" fill="#666666">[integer]</text>
<polygon fill="none" stroke="#000000" points="347,-132.5 347,-162.5 600,-162.5 600,-132.5 347,-132.5"/>
<text text-anchor="start" x="354" y="-143.9" font-family="Arial" font-size="14.00" fill="#000000">name </text>
<text text-anchor="start" x="392.899" y="-143.9" font-family="Arial" font-size="14.00" fill="#666666">[text]</text>
<polygon fill="none" stroke="#000000" points="347,-102.5 347,-132.5 600,-132.5 600,-102.5 347,-102.5"/>
<text text-anchor="start" x="354" y="-113.9" font-family="Arial" font-size="14.00" fill="#000000">password_hash </text>
<text text-anchor="start" x="455.9186" y="-113.9" font-family="Arial" font-size="14.00" fill="#666666">[text]</text>
<polygon fill="none" stroke="#000000" points="347,-72.5 347,-102.5 600,-102.5 600,-72.5 347,-72.5"/>
<text text-anchor="start" x="354" y="-83.9" font-family="Arial" font-size="14.00" fill="#000000">created_at </text>
<text text-anchor="start" x="424.028" y="-83.9" font-family="Arial" font-size="14.00" fill="#666666">[timestamp with time zone]</text>
<polygon fill="none" stroke="#000000" points="347,-42.5 347,-72.5 600,-72.5 600,-42.5 347,-42.5"/>
<text text-anchor="start" x="353.6915" y="-53.9" font-family="Arial" font-size="14.00" fill="#000000">updated_at </text>
<text text-anchor="start" x="427.6241" y="-53.9" font-family="Arial" font-size="14.00" fill="#666666">[timestamp with time zone]</text>
</g>
<!-- public.posts&#45;&gt;public.users -->
<g id="edge3" class="edge">
<title>public.posts:user_id&#45;&gt;public.users:id</title>
<path fill="none" stroke="#000000" d="M336.624,-516.9485C195.9719,-501.7493 199.4306,-177.5 347,-177.5"/>
<polygon fill="#000000" stroke="#000000" points="337.0141,-516.9691 346.7611,-521.9937 342.007,-517.2345 347,-517.5 347,-517.5 347,-517.5 342.007,-517.2345 347.2389,-513.0063 337.0141,-516.9691 337.0141,-516.9691"/>
<text text-anchor="start" x="7.0535" y="-527.5" font-family="Arial" font-size="10.00" fill="#000000">FOREIGN KEY (user_id) REFERENCES users(id) ON DELETE CASCADE</text>
</g>
<!-- public.comments -->
<g id="node2" class="node">
<title>public.comments</title>
<polygon fill="#efefef" stroke="transparent" points="174,-902.5 174,-937.5 427,-937.5 427,-902.5 174,-902.5"/>
<polygon fill="none" stroke="#000000" points="174,-902.5 174,-937.5 427,-937.5 427,-902.5 174,-902.5"/>
<text text-anchor="start" x="184.3659" y="-915.3" font-family="Arial Bold" font-size="18.00" fill="#000000">public.comments</text>
<text text-anchor="start" x="319.3803" y="-915.3" font-family="Arial" font-size="14.00" fill="#000000"> </text>
<text text-anchor="start" x="323.2709" y="-915.3" font-family="Arial" font-size="14.00" fill="#666666">[BASE TABLE]</text>
<polygon fill="none" stroke="#000000" points="174,-872.5 174,-902.5 427,-902.5 427,-872.5 174,-872.5"/>
<text text-anchor="start" x="181" y="-883.9" font-family="Arial" font-size="14.00" fill="#000000">id </text>
<text text-anchor="start" x="195.7798" y="-883.9" font-family="Arial" font-size="14.00" fill="#666666">[integer]</text>
<polygon fill="none" stroke="#000000" points="174,-842.5 174,-872.5 427,-872.5 427,-842.5 174,-842.5"/>
<text text-anchor="start" x="181" y="-853.9" font-family="Arial" font-size="14.00" fill="#000000">user_id </text>
<text text-anchor="start" x="230.7882" y="-853.9" font-family="Arial" font-size="14.00" fill="#666666">[bigint]</text>
<polygon fill="none" stroke="#000000" points="174,-812.5 174,-842.5 427,-842.5 427,-812.5 174,-812.5"/>
<text text-anchor="start" x="181" y="-823.9" font-family="Arial" font-size="14.00" fill="#000000">post_id </text>
<text text-anchor="start" x="230.0182" y="-823.9" font-family="Arial" font-size="14.00" fill="#666666">[bigint]</text>
<polygon fill="none" stroke="#000000" points="174,-782.5 174,-812.5 427,-812.5 427,-782.5 174,-782.5"/>
<text text-anchor="start" x="181" y="-793.9" font-family="Arial" font-size="14.00" fill="#000000">comment </text>
<text text-anchor="start" x="242.4502" y="-793.9" font-family="Arial" font-size="14.00" fill="#666666">[text]</text>
<polygon fill="none" stroke="#000000" points="174,-752.5 174,-782.5 427,-782.5 427,-752.5 174,-752.5"/>
<text text-anchor="start" x="181" y="-763.9" font-family="Arial" font-size="14.00" fill="#000000">created_at </text>
<text text-anchor="start" x="251.028" y="-763.9" font-family="Arial" font-size="14.00" fill="#666666">[timestamp with time zone]</text>
<polygon fill="none" stroke="#000000" points="174,-722.5 174,-752.5 427,-752.5 427,-722.5 174,-722.5"/>
<text text-anchor="start" x="180.6915" y="-733.9" font-family="Arial" font-size="14.00" fill="#000000">updated_at </text>
<text text-anchor="start" x="254.6241" y="-733.9" font-family="Arial" font-size="14.00" fill="#666666">[timestamp with time zone]</text>
</g>
<!-- public.comments&#45;&gt;public.posts -->
<g id="edge1" class="edge">
<title>public.comments:post_id&#45;&gt;public.posts:id</title>
<path fill="none" stroke="#000000" d="M437.2364,-826.6338C489.1435,-817.1472 460.5787,-731.9323 427,-680 405.8297,-647.2583 368.1703,-676.7417 347,-644 323.7126,-607.984 304.1111,-547.5 347,-547.5"/>
<polygon fill="#000000" stroke="#000000" points="436.9644,-826.6567 426.6205,-823.016 431.9822,-827.0784 427,-827.5 427,-827.5 427,-827.5 431.9822,-827.0784 427.3795,-831.984 436.9644,-826.6567 436.9644,-826.6567"/>
<text text-anchor="start" x="87.6035" y="-837.5" font-family="Arial" font-size="10.00" fill="#000000">FOREIGN KEY (post_id) REFERENCES posts(id) ON DELETE CASCADE</text>
</g>
<!-- public.post_tag -->
<g id="node3" class="node">
<title>public.post_tag</title>
<polygon fill="#efefef" stroke="transparent" points="531,-842.5 531,-877.5 763,-877.5 763,-842.5 531,-842.5"/>
<polygon fill="none" stroke="#000000" points="531,-842.5 531,-877.5 763,-877.5 763,-842.5 531,-842.5"/>
<text text-anchor="start" x="537.8508" y="-855.3" font-family="Arial Bold" font-size="18.00" fill="#000000">public.post_tag</text>
<text text-anchor="start" x="658.8954" y="-855.3" font-family="Arial" font-size="14.00" fill="#000000"> </text>
<text text-anchor="start" x="662.786" y="-855.3" font-family="Arial" font-size="14.00" fill="#666666">[BASE TABLE]</text>
<polygon fill="none" stroke="#000000" points="531,-812.5 531,-842.5 763,-842.5 763,-812.5 531,-812.5"/>
<text text-anchor="start" x="538" y="-823.9" font-family="Arial" font-size="14.00" fill="#000000">post_id </text>
<text text-anchor="start" x="587.0182" y="-823.9" font-family="Arial" font-size="14.00" fill="#666666">[bigint]</text>
<polygon fill="none" stroke="#000000" points="531,-782.5 531,-812.5 763,-812.5 763,-782.5 531,-782.5"/>
<text text-anchor="start" x="538" y="-793.9" font-family="Arial" font-size="14.00" fill="#000000">tag_id </text>
<text text-anchor="start" x="580.0182" y="-793.9" font-family="Arial" font-size="14.00" fill="#666666">[bigint]</text>
</g>
<!-- public.post_tag&#45;&gt;public.posts -->
<g id="edge2" class="edge">
<title>public.post_tag:post_id&#45;&gt;public.posts:id</title>
<path fill="none" stroke="#000000" d="M521.1042,-826.0048C497.4335,-817.3844 520.2883,-773.2567 531,-740 547.1091,-689.9861 583.8909,-694.0139 600,-644 613.1489,-603.1765 642.8889,-547.5 600,-547.5"/>
<polygon fill="#000000" stroke="#000000" points="521.1122,-826.0059 530.3277,-831.9495 526.0561,-826.753 531,-827.5 531,-827.5 531,-827.5 526.0561,-826.753 531.6723,-823.0505 521.1122,-826.0059 521.1122,-826.0059"/>
<text text-anchor="start" x="537.6035" y="-837.5" font-family="Arial" font-size="10.00" fill="#000000">FOREIGN KEY (post_id) REFERENCES posts(id) ON DELETE CASCADE</text>
</g>
</g>
</svg>
