<?xml version="1.0" encoding="UTF-8" standalone="no"?>
<!DOCTYPE svg PUBLIC "-//W3C//DTD SVG 1.1//EN"
 "http://www.w3.org/Graphics/SVG/1.1/DTD/svg11.dtd">
<!-- Generated by graphviz version 2.40.1 (20161225.0304)
 -->
<!-- Title: public.http_sessions Pages: 1 -->
<svg width="373pt" height="315pt"
 viewBox="0.00 0.00 373.00 315.00" xmlns="http://www.w3.org/2000/svg" xmlns:xlink="http://www.w3.org/1999/xlink">
<g id="graph0" class="graph" transform="scale(1 1) rotate(0) translate(4 311)">
<title>public.http_sessions</title>
<polygon fill="#ffffff" stroke="transparent" points="-4,4 -4,-311 369,-311 369,4 -4,4"/>
<!-- public.http_sessions -->
<g id="node1" class="node">
<title>public.http_sessions</title>
<polygon fill="#efefef" stroke="transparent" points="46.5,-225.5 46.5,-260.5 319.5,-260.5 319.5,-225.5 46.5,-225.5"/>
<polygon fill="none" stroke="#000000" points="46.5,-225.5 46.5,-260.5 319.5,-260.5 319.5,-225.5 46.5,-225.5"/>
<text text-anchor="start" x="53.3506" y="-238.3" font-family="Arial Bold" font-size="18.00" fill="#000000">public.http_sessions</text>
<text text-anchor="start" x="215.3956" y="-238.3" font-family="Arial" font-size="14.00" fill="#000000"> </text>
<text text-anchor="start" x="219.2862" y="-238.3" font-family="Arial" font-size="14.00" fill="#666666">[BASE TABLE]</text>
<polygon fill="none" stroke="#000000" points="46.5,-195.5 46.5,-225.5 319.5,-225.5 319.5,-195.5 46.5,-195.5"/>
<text text-anchor="start" x="53.5" y="-206.9" font-family="Arial" font-size="14.00" fill="#000000">id </text>
<text text-anchor="start" x="68.2798" y="-206.9" font-family="Arial" font-size="14.00" fill="#666666">[bigint]</text>
<polygon fill="none" stroke="#000000" points="46.5,-165.5 46.5,-195.5 319.5,-195.5 319.5,-165.5 46.5,-165.5"/>
<text text-anchor="start" x="53.5" y="-176.9" font-family="Arial" font-size="14.00" fill="#000000">key </text>
<text text-anchor="start" x="79.1732" y="-176.9" font-family="Arial" font-size="14.00" fill="#666666">[bytea]</text>
<polygon fill="none" stroke="#000000" points="46.5,-135.5 46.5,-165.5 319.5,-165.5 319.5,-135.5 46.5,-135.5"/>
<text text-anchor="start" x="53.5" y="-146.9" font-family="Arial" font-size="14.00" fill="#000000">data </text>
<text text-anchor="start" x="84.629" y="-146.9" font-family="Arial" font-size="14.00" fill="#666666">[bytea]</text>
<polygon fill="none" stroke="#000000" points="46.5,-105.5 46.5,-135.5 319.5,-135.5 319.5,-105.5 46.5,-105.5"/>
<text text-anchor="start" x="53.5" y="-116.9" font-family="Arial" font-size="14.00" fill="#000000">created_on </text>
<text text-anchor="start" x="127.42" y="-116.9" font-family="Arial" font-size="14.00" fill="#666666">[timestamp with time zone]</text>
<polygon fill="none" stroke="#000000" points="46.5,-75.5 46.5,-105.5 319.5,-105.5 319.5,-75.5 46.5,-75.5"/>
<text text-anchor="start" x="53.5" y="-86.9" font-family="Arial" font-size="14.00" fill="#000000">modified_on </text>
<text text-anchor="start" x="133.6332" y="-86.9" font-family="Arial" font-size="14.00" fill="#666666">[timestamp with time zone]</text>
<polygon fill="none" stroke="#000000" points="46.5,-45.5 46.5,-75.5 319.5,-75.5 319.5,-45.5 46.5,-45.5"/>
<text text-anchor="start" x="53.5" y="-56.9" font-family="Arial" font-size="14.00" fill="#000000">expires_on </text>
<text text-anchor="start" x="125.8534" y="-56.9" font-family="Arial" font-size="14.00" fill="#666666">[timestamp with time zone]</text>
<polygon fill="none" stroke="#000000" stroke-width="3" points="44.5,-44.5 44.5,-262.5 320.5,-262.5 320.5,-44.5 44.5,-44.5"/>
</g>
</g>
</svg>
