<?xml version="1.0" encoding="UTF-8" standalone="no"?>
<!DOCTYPE svg PUBLIC "-//W3C//DTD SVG 1.1//EN"
 "http://www.w3.org/Graphics/SVG/1.1/DTD/svg11.dtd">
<!-- Generated by graphviz version 2.40.1 (20161225.0304)
 -->
<!-- Title: postgres Pages: 1 -->
<svg width="1519pt" height="983pt"
 viewBox="0.00 0.00 1518.50 983.00" xmlns="http://www.w3.org/2000/svg" xmlns:xlink="http://www.w3.org/1999/xlink">
<g id="graph0" class="graph" transform="scale(1 1) rotate(0) translate(4 979)">
<title>postgres</title>
<polygon fill="#ffffff" stroke="transparent" points="-4,4 -4,-979 1514.5,-979 1514.5,4 -4,4"/>
<!-- public.migrations -->
<g id="node1" class="node">
<title>public.migrations</title>
<polygon fill="#efefef" stroke="transparent" points="43,-836.5 43,-871.5 291,-871.5 291,-836.5 43,-836.5"/>
<polygon fill="none" stroke="#000000" points="43,-836.5 43,-871.5 291,-871.5 291,-836.5 43,-836.5"/>
<text text-anchor="start" x="50.8686" y="-849.3" font-family="Arial Bold" font-size="18.00" fill="#000000">public.migrations</text>
<text text-anchor="start" x="185.8776" y="-849.3" font-family="Arial" font-size="14.00" fill="#000000"> </text>
<text text-anchor="start" x="189.7682" y="-849.3" font-family="Arial" font-size="14.00" fill="#666666">[BASE TABLE]</text>
<polygon fill="none" stroke="#000000" points="43,-806.5 43,-836.5 291,-836.5 291,-806.5 43,-806.5"/>
<text text-anchor="start" x="50" y="-817.9" font-family="Arial" font-size="14.00" fill="#000000">id </text>
<text text-anchor="start" x="64.7798" y="-817.9" font-family="Arial" font-size="14.00" fill="#666666">[text]</text>
<polygon fill="none" stroke="#000000" points="43,-776.5 43,-806.5 291,-806.5 291,-776.5 43,-776.5"/>
<text text-anchor="start" x="49.9215" y="-787.9" font-family="Arial" font-size="14.00" fill="#000000">applied_at </text>
<text text-anchor="start" x="118.3941" y="-787.9" font-family="Arial" font-size="14.00" fill="#666666">[timestamp with time zone]</text>
</g>
<!-- public.users -->
<g id="node2" class="node">
<title>public.users</title>
<polygon fill="#efefef" stroke="transparent" points="395,-192.5 395,-227.5 648,-227.5 648,-192.5 395,-192.5"/>
<polygon fill="none" stroke="#000000" points="395,-192.5 395,-227.5 648,-227.5 648,-192.5 395,-192.5"/>
<text text-anchor="start" x="424.8662" y="-205.3" font-family="Arial Bold" font-size="18.00" fill="#000000">public.users</text>
<text text-anchor="start" x="520.88" y="-205.3" font-family="Arial" font-size="14.00" fill="#000000"> </text>
<text text-anchor="start" x="524.7706" y="-205.3" font-family="Arial" font-size="14.00" fill="#666666">[BASE TABLE]</text>
<polygon fill="none" stroke="#000000" points="395,-162.5 395,-192.5 648,-192.5 648,-162.5 395,-162.5"/>
<text text-anchor="start" x="402" y="-173.9" font-family="Arial" font-size="14.00" fill="#000000">id </text>
<text text-anchor="start" x="416.7798" y="-173.9" font-family="Arial" font-size="14.00" fill="#666666">[integer]</text>
<polygon fill="none" stroke="#000000" points="395,-132.5 395,-162.5 648,-162.5 648,-132.5 395,-132.5"/>
<text text-anchor="start" x="402" y="-143.9" font-family="Arial" font-size="14.00" fill="#000000">name </text>
<text text-anchor="start" x="440.899" y="-143.9" font-family="Arial" font-size="14.00" fill="#666666">[text]</text>
<polygon fill="none" stroke="#000000" points="395,-102.5 395,-132.5 648,-132.5 648,-102.5 395,-102.5"/>
<text text-anchor="start" x="402" y="-113.9" font-family="Arial" font-size="14.00" fill="#000000">password_hash </text>
<text text-anchor="start" x="503.9186" y="-113.9" font-family="Arial" font-size="14.00" fill="#666666">[text]</text>
<polygon fill="none" stroke="#000000" points="395,-72.5 395,-102.5 648,-102.5 648,-72.5 395,-72.5"/>
<text text-anchor="start" x="402" y="-83.9" font-family="Arial" font-size="14.00" fill="#000000">created_at </text>
<text text-anchor="start" x="472.028" y="-83.9" font-family="Arial" font-size="14.00" fill="#666666">[timestamp with time zone]</text>
<polygon fill="none" stroke="#000000" points="395,-42.5 395,-72.5 648,-72.5 648,-42.5 395,-42.5"/>
<text text-anchor="start" x="401.6915" y="-53.9" font-family="Arial" font-size="14.00" fill="#000000">updated_at </text>
<text text-anchor="start" x="475.6241" y="-53.9" font-family="Arial" font-size="14.00" fill="#666666">[timestamp with time zone]</text>
</g>
<!-- public.posts -->
<g id="node3" class="node">
<title>public.posts</title>
<polygon fill="#efefef" stroke="transparent" points="495,-559.5 495,-594.5 748,-594.5 748,-559.5 495,-559.5"/>
<polygon fill="none" stroke="#000000" points="495,-559.5 495,-594.5 748,-594.5 748,-559.5 495,-559.5"/>
<text text-anchor="start" x="525.3612" y="-572.3" font-family="Arial Bold" font-size="18.00" fill="#000000">public.posts</text>
<text text-anchor="start" x="620.385" y="-572.3" font-family="Arial" font-size="14.00" fill="#000000"> </text>
<text text-anchor="start" x="624.2756" y="-572.3" font-family="Arial" font-size="14.00" fill="#666666">[BASE TABLE]</text>
<polygon fill="none" stroke="#000000" points="495,-529.5 495,-559.5 748,-559.5 748,-529.5 495,-529.5"/>
<text text-anchor="start" x="502" y="-540.9" font-family="Arial" font-size="14.00" fill="#000000">id </text>
<text text-anchor="start" x="516.7798" y="-540.9" font-family="Arial" font-size="14.00" fill="#666666">[integer]</text>
<polygon fill="none" stroke="#000000" points="495,-499.5 495,-529.5 748,-529.5 748,-499.5 495,-499.5"/>
<text text-anchor="start" x="502" y="-510.9" font-family="Arial" font-size="14.00" fill="#000000">user_id </text>
<text text-anchor="start" x="551.7882" y="-510.9" font-family="Arial" font-size="14.00" fill="#666666">[bigint]</text>
<polygon fill="none" stroke="#000000" points="495,-469.5 495,-499.5 748,-499.5 748,-469.5 495,-469.5"/>
<text text-anchor="start" x="502" y="-480.9" font-family="Arial" font-size="14.00" fill="#000000">title </text>
<text text-anchor="start" x="527.6676" y="-480.9" font-family="Arial" font-size="14.00" fill="#666666">[text]</text>
<polygon fill="none" stroke="#000000" points="495,-439.5 495,-469.5 748,-469.5 748,-439.5 495,-439.5"/>
<text text-anchor="start" x="502" y="-450.9" font-family="Arial" font-size="14.00" fill="#000000">url </text>
<text text-anchor="start" x="521.4404" y="-450.9" font-family="Arial" font-size="14.00" fill="#666666">[text]</text>
<polygon fill="none" stroke="#000000" points="495,-409.5 495,-439.5 748,-439.5 748,-409.5 495,-409.5"/>
<text text-anchor="start" x="502" y="-420.9" font-family="Arial" font-size="14.00" fill="#000000">message </text>
<text text-anchor="start" x="562.6816" y="-420.9" font-family="Arial" font-size="14.00" fill="#666666">[text]</text>
<polygon fill="none" stroke="#000000" points="495,-379.5 495,-409.5 748,-409.5 748,-379.5 495,-379.5"/>
<text text-anchor="start" x="502" y="-390.9" font-family="Arial" font-size="14.00" fill="#000000">created_at </text>
<text text-anchor="start" x="572.028" y="-390.9" font-family="Arial" font-size="14.00" fill="#666666">[timestamp with time zone]</text>
<polygon fill="none" stroke="#000000" points="495,-349.5 495,-379.5 748,-379.5 748,-349.5 495,-349.5"/>
<text text-anchor="start" x="501.6915" y="-360.9" font-family="Arial" font-size="14.00" fill="#000000">updated_at </text>
<text text-anchor="start" x="575.6241" y="-360.9" font-family="Arial" font-size="14.00" fill="#666666">[timestamp with time zone]</text>
</g>
<!-- public.posts&#45;&gt;public.users -->
<g id="edge1" class="edge">
<title>public.posts:user_id&#45;&gt;public.users:id</title>
<path fill="none" stroke="#000000" d="M484.7687,-513.8929C405.5434,-504.033 439.9786,-376.4702 495,-307 538.3722,-252.2382 604.6278,-325.7618 648,-271 673.8006,-238.4241 689.5556,-177.5 648,-177.5"/>
<polygon fill="#000000" stroke="#000000" points="485.0176,-513.9076 494.7334,-518.9921 490.0088,-514.2038 495,-514.5 495,-514.5 495,-514.5 490.0088,-514.2038 495.2666,-510.0079 485.0176,-513.9076 485.0176,-513.9076"/>
<text text-anchor="start" x="155.0535" y="-524.5" font-family="Arial" font-size="10.00" fill="#000000">FOREIGN KEY (user_id) REFERENCES users(id) ON DELETE CASCADE</text>
</g>
<!-- public.comments -->
<g id="node4" class="node">
<title>public.comments</title>
<polygon fill="#efefef" stroke="transparent" points="396,-896.5 396,-931.5 649,-931.5 649,-896.5 396,-896.5"/>
<polygon fill="none" stroke="#000000" points="396,-896.5 396,-931.5 649,-931.5 649,-896.5 396,-896.5"/>
<text text-anchor="start" x="406.3659" y="-909.3" font-family="Arial Bold" font-size="18.00" fill="#000000">public.comments</text>
<text text-anchor="start" x="541.3803" y="-909.3" font-family="Arial" font-size="14.00" fill="#000000"> </text>
<text text-anchor="start" x="545.2709" y="-909.3" font-family="Arial" font-size="14.00" fill="#666666">[BASE TABLE]</text>
<polygon fill="none" stroke="#000000" points="396,-866.5 396,-896.5 649,-896.5 649,-866.5 396,-866.5"/>
<text text-anchor="start" x="403" y="-877.9" font-family="Arial" font-size="14.00" fill="#000000">id </text>
<text text-anchor="start" x="417.7798" y="-877.9" font-family="Arial" font-size="14.00" fill="#666666">[integer]</text>
<polygon fill="none" stroke="#000000" points="396,-836.5 396,-866.5 649,-866.5 649,-836.5 396,-836.5"/>
<text text-anchor="start" x="403" y="-847.9" font-family="Arial" font-size="14.00" fill="#000000">user_id </text>
<text text-anchor="start" x="452.7882" y="-847.9" font-family="Arial" font-size="14.00" fill="#666666">[bigint]</text>
<polygon fill="none" stroke="#000000" points="396,-806.5 396,-836.5 649,-836.5 649,-806.5 396,-806.5"/>
<text text-anchor="start" x="403" y="-817.9" font-family="Arial" font-size="14.00" fill="#000000">post_id </text>
<text text-anchor="start" x="452.0182" y="-817.9" font-family="Arial" font-size="14.00" fill="#666666">[bigint]</text>
<polygon fill="none" stroke="#000000" points="396,-776.5 396,-806.5 649,-806.5 649,-776.5 396,-776.5"/>
<text text-anchor="start" x="403" y="-787.9" font-family="Arial" font-size="14.00" fill="#000000">comment </text>
<text text-anchor="start" x="464.4502" y="-787.9" font-family="Arial" font-size="14.00" fill="#666666">[text]</text>
<polygon fill="none" stroke="#000000" points="396,-746.5 396,-776.5 649,-776.5 649,-746.5 396,-746.5"/>
<text text-anchor="start" x="403" y="-757.9" font-family="Arial" font-size="14.00" fill="#000000">created_at </text>
<text text-anchor="start" x="473.028" y="-757.9" font-family="Arial" font-size="14.00" fill="#666666">[timestamp with time zone]</text>
<polygon fill="none" stroke="#000000" points="396,-716.5 396,-746.5 649,-746.5 649,-716.5 396,-716.5"/>
<text text-anchor="start" x="402.6915" y="-727.9" font-family="Arial" font-size="14.00" fill="#000000">updated_at </text>
<text text-anchor="start" x="476.6241" y="-727.9" font-family="Arial" font-size="14.00" fill="#666666">[timestamp with time zone]</text>
</g>
<!-- public.comments&#45;&gt;public.users -->
<g id="edge2" class="edge">
<title>public.comments:user_id&#45;&gt;public.users:id</title>
<path fill="none" stroke="#000000" d="M386.355,-847.5419C321.1743,-792.3054 323.4752,-177.5 395,-177.5"/>
<polygon fill="#000000" stroke="#000000" points="386.7487,-847.7034 394.2915,-855.6631 391.3744,-849.6017 396,-851.5 396,-851.5 396,-851.5 391.3744,-849.6017 397.7085,-847.3369 386.7487,-847.7034 386.7487,-847.7034"/>
<text text-anchor="start" x="403.0535" y="-861.5" font-family="Arial" font-size="10.00" fill="#000000">FOREIGN KEY (user_id) REFERENCES users(id) ON DELETE CASCADE</text>
</g>
<!-- public.comments&#45;&gt;public.posts -->
<g id="edge3" class="edge">
<title>public.comments:post_id&#45;&gt;public.posts:id</title>
<path fill="none" stroke="#000000" d="M659.2831,-820.6003C711.6932,-810.7528 687.4313,-722.4513 649,-674 605.3193,-618.9306 538.6807,-693.0694 495,-638 469.1758,-605.4427 453.4444,-544.5 495,-544.5"/>
<polygon fill="#000000" stroke="#000000" points="658.9619,-820.6283 648.6077,-817.0171 653.981,-821.0642 649,-821.5 649,-821.5 649,-821.5 653.981,-821.0642 649.3923,-825.9829 658.9619,-820.6283 658.9619,-820.6283"/>
<text text-anchor="start" x="655.6035" y="-831.5" font-family="Arial" font-size="10.00" fill="#000000">FOREIGN KEY (post_id) REFERENCES posts(id) ON DELETE CASCADE</text>
</g>
<!-- public.tags -->
<g id="node5" class="node">
<title>public.tags</title>
<polygon fill="#efefef" stroke="transparent" points="852,-514.5 852,-549.5 1105,-549.5 1105,-514.5 852,-514.5"/>
<polygon fill="none" stroke="#000000" points="852,-514.5 852,-549.5 1105,-549.5 1105,-514.5 852,-514.5"/>
<text text-anchor="start" x="886.8612" y="-527.3" font-family="Arial Bold" font-size="18.00" fill="#000000">public.tags</text>
<text text-anchor="start" x="972.885" y="-527.3" font-family="Arial" font-size="14.00" fill="#000000"> </text>
<text text-anchor="start" x="976.7756" y="-527.3" font-family="Arial" font-size="14.00" fill="#666666">[BASE TABLE]</text>
<polygon fill="none" stroke="#000000" points="852,-484.5 852,-514.5 1105,-514.5 1105,-484.5 852,-484.5"/>
<text text-anchor="start" x="859" y="-495.9" font-family="Arial" font-size="14.00" fill="#000000">id </text>
<text text-anchor="start" x="873.7798" y="-495.9" font-family="Arial" font-size="14.00" fill="#666666">[integer]</text>
<polygon fill="none" stroke="#000000" points="852,-454.5 852,-484.5 1105,-484.5 1105,-454.5 852,-454.5"/>
<text text-anchor="start" x="859" y="-465.9" font-family="Arial" font-size="14.00" fill="#000000">name </text>
<text text-anchor="start" x="897.899" y="-465.9" font-family="Arial" font-size="14.00" fill="#666666">[text]</text>
<polygon fill="none" stroke="#000000" points="852,-424.5 852,-454.5 1105,-454.5 1105,-424.5 852,-424.5"/>
<text text-anchor="start" x="859" y="-435.9" font-family="Arial" font-size="14.00" fill="#000000">created_at </text>
<text text-anchor="start" x="929.028" y="-435.9" font-family="Arial" font-size="14.00" fill="#666666">[timestamp with time zone]</text>
<polygon fill="none" stroke="#000000" points="852,-394.5 852,-424.5 1105,-424.5 1105,-394.5 852,-394.5"/>
<text text-anchor="start" x="858.6915" y="-405.9" font-family="Arial" font-size="14.00" fill="#000000">updated_at </text>
<text text-anchor="start" x="932.6241" y="-405.9" font-family="Arial" font-size="14.00" fill="#666666">[timestamp with time zone]</text>
</g>
<!-- public.post_tag -->
<g id="node6" class="node">
<title>public.post_tag</title>
<polygon fill="#efefef" stroke="transparent" points="858,-836.5 858,-871.5 1090,-871.5 1090,-836.5 858,-836.5"/>
<polygon fill="none" stroke="#000000" points="858,-836.5 858,-871.5 1090,-871.5 1090,-836.5 858,-836.5"/>
<text text-anchor="start" x="864.8508" y="-849.3" font-family="Arial Bold" font-size="18.00" fill="#000000">public.post_tag</text>
<text text-anchor="start" x="985.8954" y="-849.3" font-family="Arial" font-size="14.00" fill="#000000"> </text>
<text text-anchor="start" x="989.786" y="-849.3" font-family="Arial" font-size="14.00" fill="#666666">[BASE TABLE]</text>
<polygon fill="none" stroke="#000000" points="858,-806.5 858,-836.5 1090,-836.5 1090,-806.5 858,-806.5"/>
<text text-anchor="start" x="865" y="-817.9" font-family="Arial" font-size="14.00" fill="#000000">post_id </text>
<text text-anchor="start" x="914.0182" y="-817.9" font-family="Arial" font-size="14.00" fill="#666666">[bigint]</text>
<polygon fill="none" stroke="#000000" points="858,-776.5 858,-806.5 1090,-806.5 1090,-776.5 858,-776.5"/>
<text text-anchor="start" x="865" y="-787.9" font-family="Arial" font-size="14.00" fill="#000000">tag_id </text>
<text text-anchor="start" x="907.0182" y="-787.9" font-family="Arial" font-size="14.00" fill="#666666">[bigint]</text>
</g>
<!-- public.post_tag&#45;&gt;public.posts -->
<g id="edge4" class="edge">
<title>public.post_tag:post_id&#45;&gt;public.posts:id</title>
<path fill="none" stroke="#000000" d="M848.2359,-819.2703C793.891,-793.0555 810.7389,-544.5 748,-544.5"/>
<polygon fill="#000000" stroke="#000000" points="848.251,-819.2737 856.9981,-825.8871 853.1255,-820.3868 858,-821.5 858,-821.5 858,-821.5 853.1255,-820.3868 859.0019,-817.1129 848.251,-819.2737 848.251,-819.2737"/>
<text text-anchor="start" x="605.1035" y="-805.5" font-family="Arial" font-size="10.00" fill="#000000">FOREIGN KEY (post_id) REFERENCES posts(id) ON DELETE CASCADE</text>
</g>
<!-- public.post_tag&#45;&gt;public.tags -->
<g id="edge5" class="edge">
<title>public.post_tag:tag_id&#45;&gt;public.tags:id</title>
<path fill="none" stroke="#000000" d="M973.6406,-766.2898C967.3156,-679.023 879.2978,-683.3636 852,-593 839.9829,-553.2199 810.4444,-499.5 852,-499.5"/>
<polygon fill="#000000" stroke="#000000" points="973.6481,-766.5062 969.5028,-776.6584 973.8241,-771.5031 974,-776.5 974,-776.5 974,-776.5 973.8241,-771.5031 978.4972,-776.3416 973.6481,-766.5062 973.6481,-766.5062"/>
<text text-anchor="start" x="728.6035" y="-760.5" font-family="Arial" font-size="10.00" fill="#000000">FOREIGN KEY (tag_id) REFERENCES tags(id) ON DELETE CASCADE</text>
</g>
<!-- public.http_sessions -->
<g id="node7" class="node">
<title>public.http_sessions</title>
<polygon fill="#efefef" stroke="transparent" points="1195,-896.5 1195,-931.5 1468,-931.5 1468,-896.5 1195,-896.5"/>
<polygon fill="none" stroke="#000000" points="1195,-896.5 1195,-931.5 1468,-931.5 1468,-896.5 1195,-896.5"/>
<text text-anchor="start" x="1201.8506" y="-909.3" font-family="Arial Bold" font-size="18.00" fill="#000000">public.http_sessions</text>
<text text-anchor="start" x="1363.8956" y="-909.3" font-family="Arial" font-size="14.00" fill="#000000"> </text>
<text text-anchor="start" x="1367.7862" y="-909.3" font-family="Arial" font-size="14.00" fill="#666666">[BASE TABLE]</text>
<polygon fill="none" stroke="#000000" points="1195,-866.5 1195,-896.5 1468,-896.5 1468,-866.5 1195,-866.5"/>
<text text-anchor="start" x="1202" y="-877.9" font-family="Arial" font-size="14.00" fill="#000000">id </text>
<text text-anchor="start" x="1216.7798" y="-877.9" font-family="Arial" font-size="14.00" fill="#666666">[bigint]</text>
<polygon fill="none" stroke="#000000" points="1195,-836.5 1195,-866.5 1468,-866.5 1468,-836.5 1195,-836.5"/>
<text text-anchor="start" x="1202" y="-847.9" font-family="Arial" font-size="14.00" fill="#000000">key </text>
<text text-anchor="start" x="1227.6732" y="-847.9" font-family="Arial" font-size="14.00" fill="#666666">[bytea]</text>
<polygon fill="none" stroke="#000000" points="1195,-806.5 1195,-836.5 1468,-836.5 1468,-806.5 1195,-806.5"/>
<text text-anchor="start" x="1202" y="-817.9" font-family="Arial" font-size="14.00" fill="#000000">data </text>
<text text-anchor="start" x="1233.129" y="-817.9" font-family="Arial" font-size="14.00" fill="#666666">[bytea]</text>
<polygon fill="none" stroke="#000000" points="1195,-776.5 1195,-806.5 1468,-806.5 1468,-776.5 1195,-776.5"/>
<text text-anchor="start" x="1202" y="-787.9" font-family="Arial" font-size="14.00" fill="#000000">created_on </text>
<text text-anchor="start" x="1275.92" y="-787.9" font-family="Arial" font-size="14.00" fill="#666666">[timestamp with time zone]</text>
<polygon fill="none" stroke="#000000" points="1195,-746.5 1195,-776.5 1468,-776.5 1468,-746.5 1195,-746.5"/>
<text text-anchor="start" x="1202" y="-757.9" font-family="Arial" font-size="14.00" fill="#000000">modified_on </text>
<text text-anchor="start" x="1282.1332" y="-757.9" font-family="Arial" font-size="14.00" fill="#666666">[timestamp with time zone]</text>
<polygon fill="none" stroke="#000000" points="1195,-716.5 1195,-746.5 1468,-746.5 1468,-716.5 1195,-716.5"/>
<text text-anchor="start" x="1202" y="-727.9" font-family="Arial" font-size="14.00" fill="#000000">expires_on </text>
<text text-anchor="start" x="1274.3534" y="-727.9" font-family="Arial" font-size="14.00" fill="#666666">[timestamp with time zone]</text>
</g>
</g>
</svg>
