<?xml version="1.0" encoding="UTF-8" standalone="no"?>
<!DOCTYPE svg PUBLIC "-//W3C//DTD SVG 1.1//EN"
 "http://www.w3.org/Graphics/SVG/1.1/DTD/svg11.dtd">
<!-- Generated by graphviz version 2.40.1 (20161225.0304)
 -->
<!-- Title: postgres Pages: 1 -->
<svg width="1696pt" height="983pt"
 viewBox="0.00 0.00 1695.50 983.00" xmlns="http://www.w3.org/2000/svg" xmlns:xlink="http://www.w3.org/1999/xlink">
<g id="graph0" class="graph" transform="scale(1 1) rotate(0) translate(4 979)">
<title>postgres</title>
<polygon fill="#ffffff" stroke="transparent" points="-4,4 -4,-979 1691.5,-979 1691.5,4 -4,4"/>
<!-- public.http_sessions -->
<g id="node1" class="node">
<title>public.http_sessions</title>
<polygon fill="#efefef" stroke="transparent" points="43.5,-896.5 43.5,-931.5 316.5,-931.5 316.5,-896.5 43.5,-896.5"/>
<polygon fill="none" stroke="#000000" points="43.5,-896.5 43.5,-931.5 316.5,-931.5 316.5,-896.5 43.5,-896.5"/>
<text text-anchor="start" x="50.3506" y="-909.3" font-family="Arial Bold" font-size="18.00" fill="#000000">public.http_sessions</text>
<text text-anchor="start" x="212.3956" y="-909.3" font-family="Arial" font-size="14.00" fill="#000000"> </text>
<text text-anchor="start" x="216.2862" y="-909.3" font-family="Arial" font-size="14.00" fill="#666666">[BASE TABLE]</text>
<polygon fill="none" stroke="#000000" points="43.5,-866.5 43.5,-896.5 316.5,-896.5 316.5,-866.5 43.5,-866.5"/>
<text text-anchor="start" x="50.5" y="-877.9" font-family="Arial" font-size="14.00" fill="#000000">id </text>
<text text-anchor="start" x="65.2798" y="-877.9" font-family="Arial" font-size="14.00" fill="#666666">[bigint]</text>
<polygon fill="none" stroke="#000000" points="43.5,-836.5 43.5,-866.5 316.5,-866.5 316.5,-836.5 43.5,-836.5"/>
<text text-anchor="start" x="50.5" y="-847.9" font-family="Arial" font-size="14.00" fill="#000000">key </text>
<text text-anchor="start" x="76.1732" y="-847.9" font-family="Arial" font-size="14.00" fill="#666666">[bytea]</text>
<polygon fill="none" stroke="#000000" points="43.5,-806.5 43.5,-836.5 316.5,-836.5 316.5,-806.5 43.5,-806.5"/>
<text text-anchor="start" x="50.5" y="-817.9" font-family="Arial" font-size="14.00" fill="#000000">data </text>
<text text-anchor="start" x="81.629" y="-817.9" font-family="Arial" font-size="14.00" fill="#666666">[bytea]</text>
<polygon fill="none" stroke="#000000" points="43.5,-776.5 43.5,-806.5 316.5,-806.5 316.5,-776.5 43.5,-776.5"/>
<text text-anchor="start" x="50.5" y="-787.9" font-family="Arial" font-size="14.00" fill="#000000">created_on </text>
<text text-anchor="start" x="124.42" y="-787.9" font-family="Arial" font-size="14.00" fill="#666666">[timestamp with time zone]</text>
<polygon fill="none" stroke="#000000" points="43.5,-746.5 43.5,-776.5 316.5,-776.5 316.5,-746.5 43.5,-746.5"/>
<text text-anchor="start" x="50.5" y="-757.9" font-family="Arial" font-size="14.00" fill="#000000">modified_on </text>
<text text-anchor="start" x="130.6332" y="-757.9" font-family="Arial" font-size="14.00" fill="#666666">[timestamp with time zone]</text>
<polygon fill="none" stroke="#000000" points="43.5,-716.5 43.5,-746.5 316.5,-746.5 316.5,-716.5 43.5,-716.5"/>
<text text-anchor="start" x="50.5" y="-727.9" font-family="Arial" font-size="14.00" fill="#000000">expires_on </text>
<text text-anchor="start" x="122.8534" y="-727.9" font-family="Arial" font-size="14.00" fill="#666666">[timestamp with time zone]</text>
</g>
<!-- public.migrations -->
<g id="node2" class="node">
<title>public.migrations</title>
<polygon fill="#efefef" stroke="transparent" points="420.5,-836.5 420.5,-871.5 668.5,-871.5 668.5,-836.5 420.5,-836.5"/>
<polygon fill="none" stroke="#000000" points="420.5,-836.5 420.5,-871.5 668.5,-871.5 668.5,-836.5 420.5,-836.5"/>
<text text-anchor="start" x="428.3686" y="-849.3" font-family="Arial Bold" font-size="18.00" fill="#000000">public.migrations</text>
<text text-anchor="start" x="563.3776" y="-849.3" font-family="Arial" font-size="14.00" fill="#000000"> </text>
<text text-anchor="start" x="567.2682" y="-849.3" font-family="Arial" font-size="14.00" fill="#666666">[BASE TABLE]</text>
<polygon fill="none" stroke="#000000" points="420.5,-806.5 420.5,-836.5 668.5,-836.5 668.5,-806.5 420.5,-806.5"/>
<text text-anchor="start" x="427.5" y="-817.9" font-family="Arial" font-size="14.00" fill="#000000">id </text>
<text text-anchor="start" x="442.2798" y="-817.9" font-family="Arial" font-size="14.00" fill="#666666">[text]</text>
<polygon fill="none" stroke="#000000" points="420.5,-776.5 420.5,-806.5 668.5,-806.5 668.5,-776.5 420.5,-776.5"/>
<text text-anchor="start" x="427.4215" y="-787.9" font-family="Arial" font-size="14.00" fill="#000000">applied_at </text>
<text text-anchor="start" x="495.8941" y="-787.9" font-family="Arial" font-size="14.00" fill="#666666">[timestamp with time zone]</text>
</g>
<!-- public.users -->
<g id="node3" class="node">
<title>public.users</title>
<polygon fill="#efefef" stroke="transparent" points="772.5,-192.5 772.5,-227.5 1025.5,-227.5 1025.5,-192.5 772.5,-192.5"/>
<polygon fill="none" stroke="#000000" points="772.5,-192.5 772.5,-227.5 1025.5,-227.5 1025.5,-192.5 772.5,-192.5"/>
<text text-anchor="start" x="802.3662" y="-205.3" font-family="Arial Bold" font-size="18.00" fill="#000000">public.users</text>
<text text-anchor="start" x="898.38" y="-205.3" font-family="Arial" font-size="14.00" fill="#000000"> </text>
<text text-anchor="start" x="902.2706" y="-205.3" font-family="Arial" font-size="14.00" fill="#666666">[BASE TABLE]</text>
<polygon fill="none" stroke="#000000" points="772.5,-162.5 772.5,-192.5 1025.5,-192.5 1025.5,-162.5 772.5,-162.5"/>
<text text-anchor="start" x="779.5" y="-173.9" font-family="Arial" font-size="14.00" fill="#000000">id </text>
<text text-anchor="start" x="794.2798" y="-173.9" font-family="Arial" font-size="14.00" fill="#666666">[integer]</text>
<polygon fill="none" stroke="#000000" points="772.5,-132.5 772.5,-162.5 1025.5,-162.5 1025.5,-132.5 772.5,-132.5"/>
<text text-anchor="start" x="779.5" y="-143.9" font-family="Arial" font-size="14.00" fill="#000000">name </text>
<text text-anchor="start" x="818.399" y="-143.9" font-family="Arial" font-size="14.00" fill="#666666">[text]</text>
<polygon fill="none" stroke="#000000" points="772.5,-102.5 772.5,-132.5 1025.5,-132.5 1025.5,-102.5 772.5,-102.5"/>
<text text-anchor="start" x="779.5" y="-113.9" font-family="Arial" font-size="14.00" fill="#000000">password_hash </text>
<text text-anchor="start" x="881.4186" y="-113.9" font-family="Arial" font-size="14.00" fill="#666666">[text]</text>
<polygon fill="none" stroke="#000000" points="772.5,-72.5 772.5,-102.5 1025.5,-102.5 1025.5,-72.5 772.5,-72.5"/>
<text text-anchor="start" x="779.5" y="-83.9" font-family="Arial" font-size="14.00" fill="#000000">created_at </text>
<text text-anchor="start" x="849.528" y="-83.9" font-family="Arial" font-size="14.00" fill="#666666">[timestamp with time zone]</text>
<polygon fill="none" stroke="#000000" points="772.5,-42.5 772.5,-72.5 1025.5,-72.5 1025.5,-42.5 772.5,-42.5"/>
<text text-anchor="start" x="779.1915" y="-53.9" font-family="Arial" font-size="14.00" fill="#000000">updated_at </text>
<text text-anchor="start" x="853.1241" y="-53.9" font-family="Arial" font-size="14.00" fill="#666666">[timestamp with time zone]</text>
</g>
<!-- public.posts -->
<g id="node4" class="node">
<title>public.posts</title>
<polygon fill="#efefef" stroke="transparent" points="872.5,-559.5 872.5,-594.5 1125.5,-594.5 1125.5,-559.5 872.5,-559.5"/>
<polygon fill="none" stroke="#000000" points="872.5,-559.5 872.5,-594.5 1125.5,-594.5 1125.5,-559.5 872.5,-559.5"/>
<text text-anchor="start" x="902.8612" y="-572.3" font-family="Arial Bold" font-size="18.00" fill="#000000">public.posts</text>
<text text-anchor="start" x="997.885" y="-572.3" font-family="Arial" font-size="14.00" fill="#000000"> </text>
<text text-anchor="start" x="1001.7756" y="-572.3" font-family="Arial" font-size="14.00" fill="#666666">[BASE TABLE]</text>
<polygon fill="none" stroke="#000000" points="872.5,-529.5 872.5,-559.5 1125.5,-559.5 1125.5,-529.5 872.5,-529.5"/>
<text text-anchor="start" x="879.5" y="-540.9" font-family="Arial" font-size="14.00" fill="#000000">id </text>
<text text-anchor="start" x="894.2798" y="-540.9" font-family="Arial" font-size="14.00" fill="#666666">[integer]</text>
<polygon fill="none" stroke="#000000" points="872.5,-499.5 872.5,-529.5 1125.5,-529.5 1125.5,-499.5 872.5,-499.5"/>
<text text-anchor="start" x="879.5" y="-510.9" font-family="Arial" font-size="14.00" fill="#000000">user_id </text>
<text text-anchor="start" x="929.2882" y="-510.9" font-family="Arial" font-size="14.00" fill="#666666">[bigint]</text>
<polygon fill="none" stroke="#000000" points="872.5,-469.5 872.5,-499.5 1125.5,-499.5 1125.5,-469.5 872.5,-469.5"/>
<text text-anchor="start" x="879.5" y="-480.9" font-family="Arial" font-size="14.00" fill="#000000">title </text>
<text text-anchor="start" x="905.1676" y="-480.9" font-family="Arial" font-size="14.00" fill="#666666">[text]</text>
<polygon fill="none" stroke="#000000" points="872.5,-439.5 872.5,-469.5 1125.5,-469.5 1125.5,-439.5 872.5,-439.5"/>
<text text-anchor="start" x="879.5" y="-450.9" font-family="Arial" font-size="14.00" fill="#000000">url </text>
<text text-anchor="start" x="898.9404" y="-450.9" font-family="Arial" font-size="14.00" fill="#666666">[text]</text>
<polygon fill="none" stroke="#000000" points="872.5,-409.5 872.5,-439.5 1125.5,-439.5 1125.5,-409.5 872.5,-409.5"/>
<text text-anchor="start" x="879.5" y="-420.9" font-family="Arial" font-size="14.00" fill="#000000">message </text>
<text text-anchor="start" x="940.1816" y="-420.9" font-family="Arial" font-size="14.00" fill="#666666">[text]</text>
<polygon fill="none" stroke="#000000" points="872.5,-379.5 872.5,-409.5 1125.5,-409.5 1125.5,-379.5 872.5,-379.5"/>
<text text-anchor="start" x="879.5" y="-390.9" font-family="Arial" font-size="14.00" fill="#000000">created_at </text>
<text text-anchor="start" x="949.528" y="-390.9" font-family="Arial" font-size="14.00" fill="#666666">[timestamp with time zone]</text>
<polygon fill="none" stroke="#000000" points="872.5,-349.5 872.5,-379.5 1125.5,-379.5 1125.5,-349.5 872.5,-349.5"/>
<text text-anchor="start" x="879.1915" y="-360.9" font-family="Arial" font-size="14.00" fill="#000000">updated_at </text>
<text text-anchor="start" x="953.1241" y="-360.9" font-family="Arial" font-size="14.00" fill="#666666">[timestamp with time zone]</text>
</g>
<!-- public.posts&#45;&gt;public.users -->
<g id="edge1" class="edge">
<title>public.posts:user_id&#45;&gt;public.users:id</title>
<path fill="none" stroke="#000000" d="M862.2687,-513.8929C783.0434,-504.033 817.4786,-376.4702 872.5,-307 915.8722,-252.2382 982.1278,-325.7618 1025.5,-271 1051.3006,-238.4241 1067.0556,-177.5 1025.5,-177.5"/>
<polygon fill="#000000" stroke="#000000" points="862.5176,-513.9076 872.2334,-518.9921 867.5088,-514.2038 872.5,-514.5 872.5,-514.5 872.5,-514.5 867.5088,-514.2038 872.7666,-510.0079 862.5176,-513.9076 862.5176,-513.9076"/>
<text text-anchor="start" x="532.5535" y="-524.5" font-family="Arial" font-size="10.00" fill="#000000">FOREIGN KEY (user_id) REFERENCES users(id) ON DELETE CASCADE</text>
</g>
<!-- public.comments -->
<g id="node5" class="node">
<title>public.comments</title>
<polygon fill="#efefef" stroke="transparent" points="773.5,-896.5 773.5,-931.5 1026.5,-931.5 1026.5,-896.5 773.5,-896.5"/>
<polygon fill="none" stroke="#000000" points="773.5,-896.5 773.5,-931.5 1026.5,-931.5 1026.5,-896.5 773.5,-896.5"/>
<text text-anchor="start" x="783.8659" y="-909.3" font-family="Arial Bold" font-size="18.00" fill="#000000">public.comments</text>
<text text-anchor="start" x="918.8803" y="-909.3" font-family="Arial" font-size="14.00" fill="#000000"> </text>
<text text-anchor="start" x="922.7709" y="-909.3" font-family="Arial" font-size="14.00" fill="#666666">[BASE TABLE]</text>
<polygon fill="none" stroke="#000000" points="773.5,-866.5 773.5,-896.5 1026.5,-896.5 1026.5,-866.5 773.5,-866.5"/>
<text text-anchor="start" x="780.5" y="-877.9" font-family="Arial" font-size="14.00" fill="#000000">id </text>
<text text-anchor="start" x="795.2798" y="-877.9" font-family="Arial" font-size="14.00" fill="#666666">[integer]</text>
<polygon fill="none" stroke="#000000" points="773.5,-836.5 773.5,-866.5 1026.5,-866.5 1026.5,-836.5 773.5,-836.5"/>
<text text-anchor="start" x="780.5" y="-847.9" font-family="Arial" font-size="14.00" fill="#000000">user_id </text>
<text text-anchor="start" x="830.2882" y="-847.9" font-family="Arial" font-size="14.00" fill="#666666">[bigint]</text>
<polygon fill="none" stroke="#000000" points="773.5,-806.5 773.5,-836.5 1026.5,-836.5 1026.5,-806.5 773.5,-806.5"/>
<text text-anchor="start" x="780.5" y="-817.9" font-family="Arial" font-size="14.00" fill="#000000">post_id </text>
<text text-anchor="start" x="829.5182" y="-817.9" font-family="Arial" font-size="14.00" fill="#666666">[bigint]</text>
<polygon fill="none" stroke="#000000" points="773.5,-776.5 773.5,-806.5 1026.5,-806.5 1026.5,-776.5 773.5,-776.5"/>
<text text-anchor="start" x="780.5" y="-787.9" font-family="Arial" font-size="14.00" fill="#000000">comment </text>
<text text-anchor="start" x="841.9502" y="-787.9" font-family="Arial" font-size="14.00" fill="#666666">[text]</text>
<polygon fill="none" stroke="#000000" points="773.5,-746.5 773.5,-776.5 1026.5,-776.5 1026.5,-746.5 773.5,-746.5"/>
<text text-anchor="start" x="780.5" y="-757.9" font-family="Arial" font-size="14.00" fill="#000000">created_at </text>
<text text-anchor="start" x="850.528" y="-757.9" font-family="Arial" font-size="14.00" fill="#666666">[timestamp with time zone]</text>
<polygon fill="none" stroke="#000000" points="773.5,-716.5 773.5,-746.5 1026.5,-746.5 1026.5,-716.5 773.5,-716.5"/>
<text text-anchor="start" x="780.1915" y="-727.9" font-family="Arial" font-size="14.00" fill="#000000">updated_at </text>
<text text-anchor="start" x="854.1241" y="-727.9" font-family="Arial" font-size="14.00" fill="#666666">[timestamp with time zone]</text>
</g>
<!-- public.comments&#45;&gt;public.users -->
<g id="edge2" class="edge">
<title>public.comments:user_id&#45;&gt;public.users:id</title>
<path fill="none" stroke="#000000" d="M763.855,-847.5419C698.6743,-792.3054 700.9752,-177.5 772.5,-177.5"/>
<polygon fill="#000000" stroke="#000000" points="764.2487,-847.7034 771.7915,-855.6631 768.8744,-849.6017 773.5,-851.5 773.5,-851.5 773.5,-851.5 768.8744,-849.6017 775.2085,-847.3369 764.2487,-847.7034 764.2487,-847.7034"/>
<text text-anchor="start" x="780.5535" y="-861.5" font-family="Arial" font-size="10.00" fill="#000000">FOREIGN KEY (user_id) REFERENCES users(id) ON DELETE CASCADE</text>
</g>
<!-- public.comments&#45;&gt;public.posts -->
<g id="edge3" class="edge">
<title>public.comments:post_id&#45;&gt;public.posts:id</title>
<path fill="none" stroke="#000000" d="M1036.7831,-820.6003C1089.1932,-810.7528 1064.9313,-722.4513 1026.5,-674 982.8193,-618.9306 916.1807,-693.0694 872.5,-638 846.6758,-605.4427 830.9444,-544.5 872.5,-544.5"/>
<polygon fill="#000000" stroke="#000000" points="1036.4619,-820.6283 1026.1077,-817.0171 1031.481,-821.0642 1026.5,-821.5 1026.5,-821.5 1026.5,-821.5 1031.481,-821.0642 1026.8923,-825.9829 1036.4619,-820.6283 1036.4619,-820.6283"/>
<text text-anchor="start" x="1033.1035" y="-831.5" font-family="Arial" font-size="10.00" fill="#000000">FOREIGN KEY (post_id) REFERENCES posts(id) ON DELETE CASCADE</text>
</g>
<!-- public.tags -->
<g id="node6" class="node">
<title>public.tags</title>
<polygon fill="#efefef" stroke="transparent" points="1229.5,-514.5 1229.5,-549.5 1482.5,-549.5 1482.5,-514.5 1229.5,-514.5"/>
<polygon fill="none" stroke="#000000" points="1229.5,-514.5 1229.5,-549.5 1482.5,-549.5 1482.5,-514.5 1229.5,-514.5"/>
<text text-anchor="start" x="1264.3612" y="-527.3" font-family="Arial Bold" font-size="18.00" fill="#000000">public.tags</text>
<text text-anchor="start" x="1350.385" y="-527.3" font-family="Arial" font-size="14.00" fill="#000000"> </text>
<text text-anchor="start" x="1354.2756" y="-527.3" font-family="Arial" font-size="14.00" fill="#666666">[BASE TABLE]</text>
<polygon fill="none" stroke="#000000" points="1229.5,-484.5 1229.5,-514.5 1482.5,-514.5 1482.5,-484.5 1229.5,-484.5"/>
<text text-anchor="start" x="1236.5" y="-495.9" font-family="Arial" font-size="14.00" fill="#000000">id </text>
<text text-anchor="start" x="1251.2798" y="-495.9" font-family="Arial" font-size="14.00" fill="#666666">[integer]</text>
<polygon fill="none" stroke="#000000" points="1229.5,-454.5 1229.5,-484.5 1482.5,-484.5 1482.5,-454.5 1229.5,-454.5"/>
<text text-anchor="start" x="1236.5" y="-465.9" font-family="Arial" font-size="14.00" fill="#000000">name </text>
<text text-anchor="start" x="1275.399" y="-465.9" font-family="Arial" font-size="14.00" fill="#666666">[text]</text>
<polygon fill="none" stroke="#000000" points="1229.5,-424.5 1229.5,-454.5 1482.5,-454.5 1482.5,-424.5 1229.5,-424.5"/>
<text text-anchor="start" x="1236.5" y="-435.9" font-family="Arial" font-size="14.00" fill="#000000">created_at </text>
<text text-anchor="start" x="1306.528" y="-435.9" font-family="Arial" font-size="14.00" fill="#666666">[timestamp with time zone]</text>
<polygon fill="none" stroke="#000000" points="1229.5,-394.5 1229.5,-424.5 1482.5,-424.5 1482.5,-394.5 1229.5,-394.5"/>
<text text-anchor="start" x="1236.1915" y="-405.9" font-family="Arial" font-size="14.00" fill="#000000">updated_at </text>
<text text-anchor="start" x="1310.1241" y="-405.9" font-family="Arial" font-size="14.00" fill="#666666">[timestamp with time zone]</text>
</g>
<!-- public.post_tag -->
<g id="node7" class="node">
<title>public.post_tag</title>
<polygon fill="#efefef" stroke="transparent" points="1235.5,-836.5 1235.5,-871.5 1467.5,-871.5 1467.5,-836.5 1235.5,-836.5"/>
<polygon fill="none" stroke="#000000" points="1235.5,-836.5 1235.5,-871.5 1467.5,-871.5 1467.5,-836.5 1235.5,-836.5"/>
<text text-anchor="start" x="1242.3508" y="-849.3" font-family="Arial Bold" font-size="18.00" fill="#000000">public.post_tag</text>
<text text-anchor="start" x="1363.3954" y="-849.3" font-family="Arial" font-size="14.00" fill="#000000"> </text>
<text text-anchor="start" x="1367.286" y="-849.3" font-family="Arial" font-size="14.00" fill="#666666">[BASE TABLE]</text>
<polygon fill="none" stroke="#000000" points="1235.5,-806.5 1235.5,-836.5 1467.5,-836.5 1467.5,-806.5 1235.5,-806.5"/>
<text text-anchor="start" x="1242.5" y="-817.9" font-family="Arial" font-size="14.00" fill="#000000">post_id </text>
<text text-anchor="start" x="1291.5182" y="-817.9" font-family="Arial" font-size="14.00" fill="#666666">[bigint]</text>
<polygon fill="none" stroke="#000000" points="1235.5,-776.5 1235.5,-806.5 1467.5,-806.5 1467.5,-776.5 1235.5,-776.5"/>
<text text-anchor="start" x="1242.5" y="-787.9" font-family="Arial" font-size="14.00" fill="#000000">tag_id </text>
<text text-anchor="start" x="1284.5182" y="-787.9" font-family="Arial" font-size="14.00" fill="#666666">[bigint]</text>
</g>
<!-- public.post_tag&#45;&gt;public.posts -->
<g id="edge4" class="edge">
<title>public.post_tag:post_id&#45;&gt;public.posts:id</title>
<path fill="none" stroke="#000000" d="M1225.7359,-819.2703C1171.391,-793.0555 1188.2389,-544.5 1125.5,-544.5"/>
<polygon fill="#000000" stroke="#000000" points="1225.751,-819.2737 1234.4981,-825.8871 1230.6255,-820.3868 1235.5,-821.5 1235.5,-821.5 1235.5,-821.5 1230.6255,-820.3868 1236.5019,-817.1129 1225.751,-819.2737 1225.751,-819.2737"/>
<text text-anchor="start" x="982.6035" y="-805.5" font-family="Arial" font-size="10.00" fill="#000000">FOREIGN KEY (post_id) REFERENCES posts(id) ON DELETE CASCADE</text>
</g>
<!-- public.post_tag&#45;&gt;public.tags -->
<g id="edge5" class="edge">
<title>public.post_tag:tag_id&#45;&gt;public.tags:id</title>
<path fill="none" stroke="#000000" d="M1351.1406,-766.2898C1344.8156,-679.023 1256.7978,-683.3636 1229.5,-593 1217.4829,-553.2199 1187.9444,-499.5 1229.5,-499.5"/>
<polygon fill="#000000" stroke="#000000" points="1351.1481,-766.5062 1347.0028,-776.6584 1351.3241,-771.5031 1351.5,-776.5 1351.5,-776.5 1351.5,-776.5 1351.3241,-771.5031 1355.9972,-776.3416 1351.1481,-766.5062 1351.1481,-766.5062"/>
<text text-anchor="start" x="1358.1035" y="-786.5" font-family="Arial" font-size="10.00" fill="#000000">FOREIGN KEY (tag_id) REFERENCES tags(id) ON DELETE CASCADE</text>
</g>
</g>
</svg>
