<?xml version="1.0" encoding="UTF-8" standalone="no"?>
<!DOCTYPE svg PUBLIC "-//W3C//DTD SVG 1.1//EN"
 "http://www.w3.org/Graphics/SVG/1.1/DTD/svg11.dtd">
<!-- Generated by graphviz version 2.40.1 (20161225.0304)
 -->
<!-- Title: postgres Pages: 1 -->
<svg width="720pt" height="309pt"
 viewBox="0.00 0.00 719.50 309.00" xmlns="http://www.w3.org/2000/svg" xmlns:xlink="http://www.w3.org/1999/xlink">
<g id="graph0" class="graph" transform="scale(1 1) rotate(0) translate(4 305)">
<title>postgres</title>
<polygon fill="#ffffff" stroke="transparent" points="-4,4 -4,-305 715.5,-305 715.5,4 -4,4"/>
<!-- public.http_sessions -->
<g id="node1" class="node">
<title>public.http_sessions</title>
<polygon fill="#efefef" stroke="transparent" points="43.5,-222.5 43.5,-257.5 316.5,-257.5 316.5,-222.5 43.5,-222.5"/>
<polygon fill="none" stroke="#000000" points="43.5,-222.5 43.5,-257.5 316.5,-257.5 316.5,-222.5 43.5,-222.5"/>
<text text-anchor="start" x="50.3506" y="-235.3" font-family="Arial Bold" font-size="18.00" fill="#000000">public.http_sessions</text>
<text text-anchor="start" x="212.3956" y="-235.3" font-family="Arial" font-size="14.00" fill="#000000"> </text>
<text text-anchor="start" x="216.2862" y="-235.3" font-family="Arial" font-size="14.00" fill="#666666">[BASE TABLE]</text>
<polygon fill="none" stroke="#000000" points="43.5,-192.5 43.5,-222.5 316.5,-222.5 316.5,-192.5 43.5,-192.5"/>
<text text-anchor="start" x="50.5" y="-203.9" font-family="Arial" font-size="14.00" fill="#000000">id </text>
<text text-anchor="start" x="65.2798" y="-203.9" font-family="Arial" font-size="14.00" fill="#666666">[bigint]</text>
<polygon fill="none" stroke="#000000" points="43.5,-162.5 43.5,-192.5 316.5,-192.5 316.5,-162.5 43.5,-162.5"/>
<text text-anchor="start" x="50.5" y="-173.9" font-family="Arial" font-size="14.00" fill="#000000">key </text>
<text text-anchor="start" x="76.1732" y="-173.9" font-family="Arial" font-size="14.00" fill="#666666">[bytea]</text>
<polygon fill="none" stroke="#000000" points="43.5,-132.5 43.5,-162.5 316.5,-162.5 316.5,-132.5 43.5,-132.5"/>
<text text-anchor="start" x="50.5" y="-143.9" font-family="Arial" font-size="14.00" fill="#000000">data </text>
<text text-anchor="start" x="81.629" y="-143.9" font-family="Arial" font-size="14.00" fill="#666666">[bytea]</text>
<polygon fill="none" stroke="#000000" points="43.5,-102.5 43.5,-132.5 316.5,-132.5 316.5,-102.5 43.5,-102.5"/>
<text text-anchor="start" x="50.5" y="-113.9" font-family="Arial" font-size="14.00" fill="#000000">created_on </text>
<text text-anchor="start" x="124.42" y="-113.9" font-family="Arial" font-size="14.00" fill="#666666">[timestamp with time zone]</text>
<polygon fill="none" stroke="#000000" points="43.5,-72.5 43.5,-102.5 316.5,-102.5 316.5,-72.5 43.5,-72.5"/>
<text text-anchor="start" x="50.5" y="-83.9" font-family="Arial" font-size="14.00" fill="#000000">modified_on </text>
<text text-anchor="start" x="130.6332" y="-83.9" font-family="Arial" font-size="14.00" fill="#666666">[timestamp with time zone]</text>
<polygon fill="none" stroke="#000000" points="43.5,-42.5 43.5,-72.5 316.5,-72.5 316.5,-42.5 43.5,-42.5"/>
<text text-anchor="start" x="50.5" y="-53.9" font-family="Arial" font-size="14.00" fill="#000000">expires_on </text>
<text text-anchor="start" x="122.8534" y="-53.9" font-family="Arial" font-size="14.00" fill="#666666">[timestamp with time zone]</text>
</g>
<!-- public.migrations -->
<g id="node2" class="node">
<title>public.migrations</title>
<polygon fill="#efefef" stroke="transparent" points="420.5,-162.5 420.5,-197.5 668.5,-197.5 668.5,-162.5 420.5,-162.5"/>
<polygon fill="none" stroke="#000000" points="420.5,-162.5 420.5,-197.5 668.5,-197.5 668.5,-162.5 420.5,-162.5"/>
<text text-anchor="start" x="428.3686" y="-175.3" font-family="Arial Bold" font-size="18.00" fill="#000000">public.migrations</text>
<text text-anchor="start" x="563.3776" y="-175.3" font-family="Arial" font-size="14.00" fill="#000000"> </text>
<text text-anchor="start" x="567.2682" y="-175.3" font-family="Arial" font-size="14.00" fill="#666666">[BASE TABLE]</text>
<polygon fill="none" stroke="#000000" points="420.5,-132.5 420.5,-162.5 668.5,-162.5 668.5,-132.5 420.5,-132.5"/>
<text text-anchor="start" x="427.5" y="-143.9" font-family="Arial" font-size="14.00" fill="#000000">id </text>
<text text-anchor="start" x="442.2798" y="-143.9" font-family="Arial" font-size="14.00" fill="#666666">[text]</text>
<polygon fill="none" stroke="#000000" points="420.5,-102.5 420.5,-132.5 668.5,-132.5 668.5,-102.5 420.5,-102.5"/>
<text text-anchor="start" x="427.4215" y="-113.9" font-family="Arial" font-size="14.00" fill="#000000">applied_at </text>
<text text-anchor="start" x="495.8941" y="-113.9" font-family="Arial" font-size="14.00" fill="#666666">[timestamp with time zone]</text>
</g>
</g>
</svg>
