<?xml version="1.0" encoding="UTF-8" standalone="no"?>
<!DOCTYPE svg PUBLIC "-//W3C//DTD SVG 1.1//EN"
 "http://www.w3.org/Graphics/SVG/1.1/DTD/svg11.dtd">
<!-- Generated by graphviz version 2.40.1 (20161225.0304)
 -->
<!-- Title: postgres Pages: 1 -->
<svg width="2108pt" height="339pt"
 viewBox="0.00 0.00 2107.50 339.00" xmlns="http://www.w3.org/2000/svg" xmlns:xlink="http://www.w3.org/1999/xlink">
<g id="graph0" class="graph" transform="scale(1 1) rotate(0) translate(4 335)">
<title>postgres</title>
<polygon fill="#ffffff" stroke="transparent" points="-4,4 -4,-335 2103.5,-335 2103.5,4 -4,4"/>
<!-- public.migrations -->
<g id="node1" class="node">
<title>public.migrations</title>
<polygon fill="#efefef" stroke="transparent" points="43,-177.5 43,-212.5 291,-212.5 291,-177.5 43,-177.5"/>
<polygon fill="none" stroke="#000000" points="43,-177.5 43,-212.5 291,-212.5 291,-177.5 43,-177.5"/>
<text text-anchor="start" x="50.8686" y="-190.3" font-family="Arial Bold" font-size="18.00" fill="#000000">public.migrations</text>
<text text-anchor="start" x="185.8776" y="-190.3" font-family="Arial" font-size="14.00" fill="#000000"> </text>
<text text-anchor="start" x="189.7682" y="-190.3" font-family="Arial" font-size="14.00" fill="#666666">[BASE TABLE]</text>
<polygon fill="none" stroke="#000000" points="43,-147.5 43,-177.5 291,-177.5 291,-147.5 43,-147.5"/>
<text text-anchor="start" x="50" y="-158.9" font-family="Arial" font-size="14.00" fill="#000000">id </text>
<text text-anchor="start" x="64.7798" y="-158.9" font-family="Arial" font-size="14.00" fill="#666666">[text]</text>
<polygon fill="none" stroke="#000000" points="43,-117.5 43,-147.5 291,-147.5 291,-117.5 43,-117.5"/>
<text text-anchor="start" x="49.9215" y="-128.9" font-family="Arial" font-size="14.00" fill="#000000">applied_at </text>
<text text-anchor="start" x="118.3941" y="-128.9" font-family="Arial" font-size="14.00" fill="#666666">[timestamp with time zone]</text>
</g>
<!-- public.comment -->
<g id="node2" class="node">
<title>public.comment</title>
<polygon fill="#efefef" stroke="transparent" points="396,-237.5 396,-272.5 649,-272.5 649,-237.5 396,-237.5"/>
<polygon fill="none" stroke="#000000" points="396,-237.5 396,-272.5 649,-272.5 649,-237.5 396,-237.5"/>
<text text-anchor="start" x="410.8659" y="-250.3" font-family="Arial Bold" font-size="18.00" fill="#000000">public.comment</text>
<text text-anchor="start" x="536.8803" y="-250.3" font-family="Arial" font-size="14.00" fill="#000000"> </text>
<text text-anchor="start" x="540.7709" y="-250.3" font-family="Arial" font-size="14.00" fill="#666666">[BASE TABLE]</text>
<polygon fill="none" stroke="#000000" points="396,-207.5 396,-237.5 649,-237.5 649,-207.5 396,-207.5"/>
<text text-anchor="start" x="403" y="-218.9" font-family="Arial" font-size="14.00" fill="#000000">id </text>
<text text-anchor="start" x="417.7798" y="-218.9" font-family="Arial" font-size="14.00" fill="#666666">[integer]</text>
<polygon fill="none" stroke="#000000" points="396,-177.5 396,-207.5 649,-207.5 649,-177.5 396,-177.5"/>
<text text-anchor="start" x="403" y="-188.9" font-family="Arial" font-size="14.00" fill="#000000">user_id </text>
<text text-anchor="start" x="452.7882" y="-188.9" font-family="Arial" font-size="14.00" fill="#666666">[bigint]</text>
<polygon fill="none" stroke="#000000" points="396,-147.5 396,-177.5 649,-177.5 649,-147.5 396,-147.5"/>
<text text-anchor="start" x="403" y="-158.9" font-family="Arial" font-size="14.00" fill="#000000">post_id </text>
<text text-anchor="start" x="452.0182" y="-158.9" font-family="Arial" font-size="14.00" fill="#666666">[bigint]</text>
<polygon fill="none" stroke="#000000" points="396,-117.5 396,-147.5 649,-147.5 649,-117.5 396,-117.5"/>
<text text-anchor="start" x="403" y="-128.9" font-family="Arial" font-size="14.00" fill="#000000">comment </text>
<text text-anchor="start" x="464.4502" y="-128.9" font-family="Arial" font-size="14.00" fill="#666666">[text]</text>
<polygon fill="none" stroke="#000000" points="396,-87.5 396,-117.5 649,-117.5 649,-87.5 396,-87.5"/>
<text text-anchor="start" x="403" y="-98.9" font-family="Arial" font-size="14.00" fill="#000000">created_at </text>
<text text-anchor="start" x="473.028" y="-98.9" font-family="Arial" font-size="14.00" fill="#666666">[timestamp with time zone]</text>
<polygon fill="none" stroke="#000000" points="396,-57.5 396,-87.5 649,-87.5 649,-57.5 396,-57.5"/>
<text text-anchor="start" x="402.6915" y="-68.9" font-family="Arial" font-size="14.00" fill="#000000">updated_at </text>
<text text-anchor="start" x="476.6241" y="-68.9" font-family="Arial" font-size="14.00" fill="#666666">[timestamp with time zone]</text>
</g>
<!-- public.post -->
<g id="node3" class="node">
<title>public.post</title>
<polygon fill="#efefef" stroke="transparent" points="753,-252.5 753,-287.5 1006,-287.5 1006,-252.5 753,-252.5"/>
<polygon fill="none" stroke="#000000" points="753,-252.5 753,-287.5 1006,-287.5 1006,-252.5 753,-252.5"/>
<text text-anchor="start" x="787.8612" y="-265.3" font-family="Arial Bold" font-size="18.00" fill="#000000">public.post</text>
<text text-anchor="start" x="873.885" y="-265.3" font-family="Arial" font-size="14.00" fill="#000000"> </text>
<text text-anchor="start" x="877.7756" y="-265.3" font-family="Arial" font-size="14.00" fill="#666666">[BASE TABLE]</text>
<polygon fill="none" stroke="#000000" points="753,-222.5 753,-252.5 1006,-252.5 1006,-222.5 753,-222.5"/>
<text text-anchor="start" x="760" y="-233.9" font-family="Arial" font-size="14.00" fill="#000000">id </text>
<text text-anchor="start" x="774.7798" y="-233.9" font-family="Arial" font-size="14.00" fill="#666666">[integer]</text>
<polygon fill="none" stroke="#000000" points="753,-192.5 753,-222.5 1006,-222.5 1006,-192.5 753,-192.5"/>
<text text-anchor="start" x="760" y="-203.9" font-family="Arial" font-size="14.00" fill="#000000">user_id </text>
<text text-anchor="start" x="809.7882" y="-203.9" font-family="Arial" font-size="14.00" fill="#666666">[bigint]</text>
<polygon fill="none" stroke="#000000" points="753,-162.5 753,-192.5 1006,-192.5 1006,-162.5 753,-162.5"/>
<text text-anchor="start" x="760" y="-173.9" font-family="Arial" font-size="14.00" fill="#000000">title </text>
<text text-anchor="start" x="785.6676" y="-173.9" font-family="Arial" font-size="14.00" fill="#666666">[text]</text>
<polygon fill="none" stroke="#000000" points="753,-132.5 753,-162.5 1006,-162.5 1006,-132.5 753,-132.5"/>
<text text-anchor="start" x="760" y="-143.9" font-family="Arial" font-size="14.00" fill="#000000">url </text>
<text text-anchor="start" x="779.4404" y="-143.9" font-family="Arial" font-size="14.00" fill="#666666">[text]</text>
<polygon fill="none" stroke="#000000" points="753,-102.5 753,-132.5 1006,-132.5 1006,-102.5 753,-102.5"/>
<text text-anchor="start" x="760" y="-113.9" font-family="Arial" font-size="14.00" fill="#000000">message </text>
<text text-anchor="start" x="820.6816" y="-113.9" font-family="Arial" font-size="14.00" fill="#666666">[text]</text>
<polygon fill="none" stroke="#000000" points="753,-72.5 753,-102.5 1006,-102.5 1006,-72.5 753,-72.5"/>
<text text-anchor="start" x="760" y="-83.9" font-family="Arial" font-size="14.00" fill="#000000">created_at </text>
<text text-anchor="start" x="830.028" y="-83.9" font-family="Arial" font-size="14.00" fill="#666666">[timestamp with time zone]</text>
<polygon fill="none" stroke="#000000" points="753,-42.5 753,-72.5 1006,-72.5 1006,-42.5 753,-42.5"/>
<text text-anchor="start" x="759.6915" y="-53.9" font-family="Arial" font-size="14.00" fill="#000000">updated_at </text>
<text text-anchor="start" x="833.6241" y="-53.9" font-family="Arial" font-size="14.00" fill="#666666">[timestamp with time zone]</text>
</g>
<!-- public.post_tag -->
<g id="node4" class="node">
<title>public.post_tag</title>
<polygon fill="#efefef" stroke="transparent" points="1110,-177.5 1110,-212.5 1342,-212.5 1342,-177.5 1110,-177.5"/>
<polygon fill="none" stroke="#000000" points="1110,-177.5 1110,-212.5 1342,-212.5 1342,-177.5 1110,-177.5"/>
<text text-anchor="start" x="1116.8508" y="-190.3" font-family="Arial Bold" font-size="18.00" fill="#000000">public.post_tag</text>
<text text-anchor="start" x="1237.8954" y="-190.3" font-family="Arial" font-size="14.00" fill="#000000"> </text>
<text text-anchor="start" x="1241.786" y="-190.3" font-family="Arial" font-size="14.00" fill="#666666">[BASE TABLE]</text>
<polygon fill="none" stroke="#000000" points="1110,-147.5 1110,-177.5 1342,-177.5 1342,-147.5 1110,-147.5"/>
<text text-anchor="start" x="1117" y="-158.9" font-family="Arial" font-size="14.00" fill="#000000">post_id </text>
<text text-anchor="start" x="1166.0182" y="-158.9" font-family="Arial" font-size="14.00" fill="#666666">[bigint]</text>
<polygon fill="none" stroke="#000000" points="1110,-117.5 1110,-147.5 1342,-147.5 1342,-117.5 1110,-117.5"/>
<text text-anchor="start" x="1117" y="-128.9" font-family="Arial" font-size="14.00" fill="#000000">tag_id </text>
<text text-anchor="start" x="1159.0182" y="-128.9" font-family="Arial" font-size="14.00" fill="#666666">[bigint]</text>
</g>
<!-- public.tag -->
<g id="node5" class="node">
<title>public.tag</title>
<polygon fill="#efefef" stroke="transparent" points="1447,-207.5 1447,-242.5 1700,-242.5 1700,-207.5 1447,-207.5"/>
<polygon fill="none" stroke="#000000" points="1447,-207.5 1447,-242.5 1700,-242.5 1700,-207.5 1447,-207.5"/>
<text text-anchor="start" x="1486.3612" y="-220.3" font-family="Arial Bold" font-size="18.00" fill="#000000">public.tag</text>
<text text-anchor="start" x="1563.385" y="-220.3" font-family="Arial" font-size="14.00" fill="#000000"> </text>
<text text-anchor="start" x="1567.2756" y="-220.3" font-family="Arial" font-size="14.00" fill="#666666">[BASE TABLE]</text>
<polygon fill="none" stroke="#000000" points="1447,-177.5 1447,-207.5 1700,-207.5 1700,-177.5 1447,-177.5"/>
<text text-anchor="start" x="1454" y="-188.9" font-family="Arial" font-size="14.00" fill="#000000">id </text>
<text text-anchor="start" x="1468.7798" y="-188.9" font-family="Arial" font-size="14.00" fill="#666666">[integer]</text>
<polygon fill="none" stroke="#000000" points="1447,-147.5 1447,-177.5 1700,-177.5 1700,-147.5 1447,-147.5"/>
<text text-anchor="start" x="1454" y="-158.9" font-family="Arial" font-size="14.00" fill="#000000">name </text>
<text text-anchor="start" x="1492.899" y="-158.9" font-family="Arial" font-size="14.00" fill="#666666">[text]</text>
<polygon fill="none" stroke="#000000" points="1447,-117.5 1447,-147.5 1700,-147.5 1700,-117.5 1447,-117.5"/>
<text text-anchor="start" x="1454" y="-128.9" font-family="Arial" font-size="14.00" fill="#000000">created_at </text>
<text text-anchor="start" x="1524.028" y="-128.9" font-family="Arial" font-size="14.00" fill="#666666">[timestamp with time zone]</text>
<polygon fill="none" stroke="#000000" points="1447,-87.5 1447,-117.5 1700,-117.5 1700,-87.5 1447,-87.5"/>
<text text-anchor="start" x="1453.6915" y="-98.9" font-family="Arial" font-size="14.00" fill="#000000">updated_at </text>
<text text-anchor="start" x="1527.6241" y="-98.9" font-family="Arial" font-size="14.00" fill="#666666">[timestamp with time zone]</text>
</g>
<!-- public.user -->
<g id="node6" class="node">
<title>public.user</title>
<polygon fill="#efefef" stroke="transparent" points="1804,-222.5 1804,-257.5 2057,-257.5 2057,-222.5 1804,-222.5"/>
<polygon fill="none" stroke="#000000" points="1804,-222.5 1804,-257.5 2057,-257.5 2057,-222.5 1804,-222.5"/>
<text text-anchor="start" x="1838.3662" y="-235.3" font-family="Arial Bold" font-size="18.00" fill="#000000">public.user</text>
<text text-anchor="start" x="1925.38" y="-235.3" font-family="Arial" font-size="14.00" fill="#000000"> </text>
<text text-anchor="start" x="1929.2706" y="-235.3" font-family="Arial" font-size="14.00" fill="#666666">[BASE TABLE]</text>
<polygon fill="none" stroke="#000000" points="1804,-192.5 1804,-222.5 2057,-222.5 2057,-192.5 1804,-192.5"/>
<text text-anchor="start" x="1811" y="-203.9" font-family="Arial" font-size="14.00" fill="#000000">id </text>
<text text-anchor="start" x="1825.7798" y="-203.9" font-family="Arial" font-size="14.00" fill="#666666">[integer]</text>
<polygon fill="none" stroke="#000000" points="1804,-162.5 1804,-192.5 2057,-192.5 2057,-162.5 1804,-162.5"/>
<text text-anchor="start" x="1811" y="-173.9" font-family="Arial" font-size="14.00" fill="#000000">name </text>
<text text-anchor="start" x="1849.899" y="-173.9" font-family="Arial" font-size="14.00" fill="#666666">[text]</text>
<polygon fill="none" stroke="#000000" points="1804,-132.5 1804,-162.5 2057,-162.5 2057,-132.5 1804,-132.5"/>
<text text-anchor="start" x="1811" y="-143.9" font-family="Arial" font-size="14.00" fill="#000000">password_hash </text>
<text text-anchor="start" x="1912.9186" y="-143.9" font-family="Arial" font-size="14.00" fill="#666666">[text]</text>
<polygon fill="none" stroke="#000000" points="1804,-102.5 1804,-132.5 2057,-132.5 2057,-102.5 1804,-102.5"/>
<text text-anchor="start" x="1811" y="-113.9" font-family="Arial" font-size="14.00" fill="#000000">created_at </text>
<text text-anchor="start" x="1881.028" y="-113.9" font-family="Arial" font-size="14.00" fill="#666666">[timestamp with time zone]</text>
<polygon fill="none" stroke="#000000" points="1804,-72.5 1804,-102.5 2057,-102.5 2057,-72.5 1804,-72.5"/>
<text text-anchor="start" x="1810.6915" y="-83.9" font-family="Arial" font-size="14.00" fill="#000000">updated_at </text>
<text text-anchor="start" x="1884.6241" y="-83.9" font-family="Arial" font-size="14.00" fill="#666666">[timestamp with time zone]</text>
</g>
</g>
</svg>
